<svg width="85" height="75" viewBox="0 0 85 75" fill="none" xmlns="http://www.w3.org/2000/svg">
<path d="M49.2144 29.5019C49.2144 26.2646 46.9123 24.4775 42.8689 24.4775H35.4314V34.9072H41.7031C46.5434 34.8926 49.2144 32.959 49.2144 29.5019ZM76.2934 27.627C74.8915 23.1006 74.6849 17.5488 74.8472 13.2568C75.0095 8.78906 71.4974 4.6875 66.7751 4.6875H18.2543C13.5173 4.6875 10.0199 8.80371 10.1823 13.2568C10.3298 17.5488 10.138 23.1006 8.73608 27.627C7.31942 32.168 4.94355 35.0391 1.03296 35.4053V39.5801C4.92879 39.9463 7.31942 42.8174 8.73608 47.3584C10.138 51.8848 10.3446 57.4365 10.1823 61.7285C10.0199 66.1963 13.5321 70.2978 18.2543 70.2978H66.7604C71.4974 70.2978 74.9948 66.1816 74.8324 61.7285C74.6849 57.4365 74.8767 51.8848 76.2786 47.3584C77.6953 42.8174 80.0712 39.9463 83.967 39.5801V35.4053C80.0859 35.0391 77.6953 32.168 76.2934 27.627ZM44.3003 54.9463H29.8533V20.0391H44.2265C50.6163 20.0391 54.8073 23.4668 54.8073 28.7402C54.8073 32.4463 51.9887 35.7568 48.388 36.3281V36.5186C53.2873 37.0459 56.5781 40.415 56.5781 45.0586C56.5781 51.2256 51.9592 54.9463 44.3003 54.9463ZM42.8246 39.0234H35.4314V50.5078H43.1493C48.1962 50.5078 50.8672 48.501 50.8672 44.7217C50.8672 40.957 48.1224 39.0234 42.8246 39.0234Z" fill="url(#paint0_linear_18_201)"/>
<defs>
<linearGradient id="paint0_linear_18_201" x1="1.21424" y1="4.83871" x2="83.5426" y2="70.4662" gradientUnits="userSpaceOnUse">
<stop stop-color="#061923"/>
<stop offset="1" stop-color="#4BB164"/>
</linearGradient>
</defs>
</svg>
