<svg width="30" height="24" viewBox="0 0 30 24" fill="none" xmlns="http://www.w3.org/2000/svg">
<path fill-rule="evenodd" clip-rule="evenodd" d="M1.66663 3.25H28.3333C29.0233 3.25 29.5833 2.69 29.5833 2C29.5833 1.31 29.0233 0.75 28.3333 0.75H1.66663C0.976626 0.75 0.416626 1.31 0.416626 2C0.416626 2.69 0.976626 3.25 1.66663 3.25Z" fill="url(#paint0_linear_18_12)"/>
<path fill-rule="evenodd" clip-rule="evenodd" d="M1.66663 13.25H28.3333C29.0233 13.25 29.5833 12.69 29.5833 12C29.5833 11.31 29.0233 10.75 28.3333 10.75H1.66663C0.976626 10.75 0.416626 11.31 0.416626 12C0.416626 12.69 0.976626 13.25 1.66663 13.25Z" fill="url(#paint1_linear_18_12)"/>
<path fill-rule="evenodd" clip-rule="evenodd" d="M1.66663 23.25H28.3333C29.0233 23.25 29.5833 22.69 29.5833 22C29.5833 21.31 29.0233 20.75 28.3333 20.75H1.66663C0.976626 20.75 0.416626 21.31 0.416626 22C0.416626 22.69 0.976626 23.25 1.66663 23.25Z" fill="url(#paint2_linear_18_12)"/>
<defs>
<linearGradient id="paint0_linear_18_12" x1="15" y1="0.75" x2="15" y2="17" gradientUnits="userSpaceOnUse">
<stop stop-color="#3F3D56"/>
<stop offset="1" stop-color="#4BB164"/>
</linearGradient>
<linearGradient id="paint1_linear_18_12" x1="15" y1="2" x2="15" y2="19.5" gradientUnits="userSpaceOnUse">
<stop stop-color="#3F3D56"/>
<stop offset="1" stop-color="#4BB164"/>
</linearGradient>
<linearGradient id="paint2_linear_18_12" x1="15" y1="-4.5" x2="15" y2="23.25" gradientUnits="userSpaceOnUse">
<stop stop-color="#3F3D56"/>
<stop offset="1" stop-color="#4BB164"/>
</linearGradient>
</defs>
</svg>
