<svg width="100" height="100" viewBox="0 0 100 100" fill="none" xmlns="http://www.w3.org/2000/svg">
<g clip-path="url(#clip0_18_168)">
<path d="M87.5 6.25C89.1576 6.25 90.7473 6.90848 91.9194 8.08058C93.0915 9.25268 93.75 10.8424 93.75 12.5V87.5C93.75 89.1576 93.0915 90.7473 91.9194 91.9194C90.7473 93.0915 89.1576 93.75 87.5 93.75H12.5C10.8424 93.75 9.25268 93.0915 8.08058 91.9194C6.90848 90.7473 6.25 89.1576 6.25 87.5V12.5C6.25 10.8424 6.90848 9.25268 8.08058 8.08058C9.25268 6.90848 10.8424 6.25 12.5 6.25H87.5ZM12.5 0C9.18479 0 6.00537 1.31696 3.66117 3.66117C1.31696 6.00537 0 9.18479 0 12.5L0 87.5C0 90.8152 1.31696 93.9946 3.66117 96.3388C6.00537 98.683 9.18479 100 12.5 100H87.5C90.8152 100 93.9946 98.683 96.3388 96.3388C98.683 93.9946 100 90.8152 100 87.5V12.5C100 9.18479 98.683 6.00537 96.3388 3.66117C93.9946 1.31696 90.8152 0 87.5 0L12.5 0Z" fill="url(#paint0_linear_18_168)"/>
<path d="M42.8375 29.0375C43.1285 29.3278 43.3594 29.6726 43.5169 30.0523C43.6745 30.4319 43.7556 30.8389 43.7556 31.25C43.7556 31.661 43.6745 32.068 43.5169 32.4477C43.3594 32.8273 43.1285 33.1722 42.8375 33.4625L26.2937 50L42.8375 66.5375C43.4243 67.1243 43.7539 67.9201 43.7539 68.75C43.7539 69.5798 43.4243 70.3757 42.8375 70.9625C42.2507 71.5493 41.4548 71.8789 40.625 71.8789C39.7951 71.8789 38.9993 71.5493 38.4125 70.9625L19.6625 52.2125C19.3715 51.9222 19.1406 51.5773 18.983 51.1977C18.8255 50.818 18.7444 50.411 18.7444 50C18.7444 49.5889 18.8255 49.1819 18.983 48.8023C19.1406 48.4226 19.3715 48.0778 19.6625 47.7875L38.4125 29.0375C38.7028 28.7464 39.0476 28.5156 39.4273 28.358C39.8069 28.2005 40.2139 28.1194 40.625 28.1194C41.036 28.1194 41.443 28.2005 41.8227 28.358C42.2023 28.5156 42.5472 28.7464 42.8375 29.0375ZM57.1625 29.0375C56.8714 29.3278 56.6406 29.6726 56.483 30.0523C56.3255 30.4319 56.2444 30.8389 56.2444 31.25C56.2444 31.661 56.3255 32.068 56.483 32.4477C56.6406 32.8273 56.8714 33.1722 57.1625 33.4625L73.7062 50L57.1625 66.5375C56.5757 67.1243 56.246 67.9201 56.246 68.75C56.246 69.5798 56.5757 70.3757 57.1625 70.9625C57.7493 71.5493 58.5451 71.8789 59.375 71.8789C60.2048 71.8789 61.0007 71.5493 61.5875 70.9625L80.3375 52.2125C80.6285 51.9222 80.8594 51.5773 81.0169 51.1977C81.1745 50.818 81.2556 50.411 81.2556 50C81.2556 49.5889 81.1745 49.1819 81.0169 48.8023C80.8594 48.4226 80.6285 48.0778 80.3375 47.7875L61.5875 29.0375C61.2972 28.7464 60.9523 28.5156 60.5727 28.358C60.193 28.2005 59.786 28.1194 59.375 28.1194C58.9639 28.1194 58.5569 28.2005 58.1773 28.358C57.7976 28.5156 57.4528 28.7464 57.1625 29.0375Z" fill="url(#paint1_linear_18_168)"/>
</g>
<defs>
<linearGradient id="paint0_linear_18_168" x1="50" y1="0" x2="50" y2="100" gradientUnits="userSpaceOnUse">
<stop stop-color="#061923"/>
<stop offset="1" stop-color="white"/>
</linearGradient>
<linearGradient id="paint1_linear_18_168" x1="50" y1="28.1194" x2="50" y2="71.8789" gradientUnits="userSpaceOnUse">
<stop stop-color="#061923"/>
<stop offset="1" stop-color="#4BB164"/>
</linearGradient>
<clipPath id="clip0_18_168">
<rect width="100" height="100" fill="white"/>
</clipPath>
</defs>
</svg>
