<svg width="344" height="250" viewBox="0 0 344 250" fill="none" xmlns="http://www.w3.org/2000/svg">
<g clip-path="url(#clip0_13_164)">
<path d="M200.379 44.0721C206.827 44.0721 212.053 38.8496 212.053 32.4074C212.053 25.9652 206.827 20.7428 200.379 20.7428C193.932 20.7428 188.706 25.9652 188.706 32.4074C188.706 38.8496 193.932 44.0721 200.379 44.0721Z" fill="#F2F2F2"/>
<path d="M290.936 217.189C308.287 203.983 316.575 181.792 311.386 160.622C311.257 160.096 311.121 159.572 310.978 159.048C307.538 146.482 299.029 134.54 286.626 130.524C276.212 127.153 264.845 129.746 253.98 128.405C232.653 125.773 216.118 108.53 204.484 90.4766C192.85 72.4229 183.908 52.2144 168.449 37.2994C142.967 12.7146 101.399 7.42151 69.8044 23.4244C38.2101 39.4273 18.0848 74.931 18.9431 110.315C19.8014 145.699 40.8235 179.528 71.3527 197.477C82.568 204.071 95.5394 208.742 108.449 207.107C119.65 205.689 129.827 199.675 140.976 197.89C158.504 195.082 175.92 203.001 191.081 212.229C206.241 221.457 220.885 232.395 238.112 236.673C254.84 240.827 275.565 228.887 290.936 217.189Z" fill="url(#paint0_linear_13_164)"/>
<path d="M266.006 24.1674C265.625 23.914 265.24 23.6738 264.86 23.4291C253.865 16.4025 242.08 10.6941 229.748 6.42191L226.889 45.836H208.763V0.668382C207.621 0.432474 206.472 0.209673 205.322 -2.28882e-05V45.836H183.781C171.922 45.836 160.549 41.1288 152.164 32.75C143.779 24.3712 139.068 13.0071 139.068 1.15772V1.15768C137.914 1.4067 136.768 1.67319 135.623 1.95715V45.836H118.078L115.354 8.25238C102.682 13.1087 90.651 19.495 79.5298 27.2692C79.3374 27.4002 79.145 27.5357 78.957 27.6667C77.9908 28.3439 77.0377 29.0341 76.089 29.7331V180.098H127.797L126.883 167.451L121.855 98.0109H223.107L218.079 167.451L217.166 180.098H268.301V25.6877C267.54 25.1722 266.775 24.6655 266.006 24.1674ZM135.623 86.5431H121.025L118.327 49.2785H135.623V86.5431ZM205.322 86.5431H180.803V85.8048C180.803 85.4499 180.733 85.0985 180.597 84.7706C180.461 84.4428 180.262 84.145 180.011 83.8942C179.759 83.6434 179.461 83.4447 179.133 83.3092C178.804 83.1738 178.452 83.1044 178.097 83.105H167.438C167.083 83.1049 166.732 83.1746 166.404 83.3102C166.076 83.4459 165.778 83.6447 165.527 83.8955C165.276 84.1462 165.077 84.4439 164.942 84.7715C164.806 85.0991 164.736 85.4503 164.736 85.8048V86.5431H139.068V49.2785H205.322V86.5431ZM208.763 86.5431V49.2785H226.64L223.942 86.5431H208.763Z" fill="#3F3D56"/>
<path d="M0 189.727C3.79809 194.224 7.90616 198.45 12.2942 202.374L331.706 202.811C336.094 198.887 340.202 194.661 344 190.164L0 189.727Z" fill="#3F3D56"/>
<path d="M216.603 149.23V186.671C216.604 187.148 216.794 187.605 217.131 187.943C217.469 188.28 217.927 188.47 218.404 188.47H273.931C274.409 188.47 274.866 188.28 275.204 187.943C275.542 187.605 275.732 187.148 275.732 186.671V149.23C275.731 148.753 275.541 148.296 275.203 147.959C274.866 147.622 274.408 147.433 273.931 147.432H218.404C217.927 147.433 217.47 147.622 217.132 147.959C216.795 148.296 216.605 148.753 216.603 149.23V149.23Z" fill="#3F3D56"/>
<path d="M217.906 149.696V186.209C217.906 186.464 218.008 186.708 218.188 186.889C218.369 187.069 218.613 187.17 218.868 187.171H273.469C273.724 187.17 273.968 187.069 274.149 186.889C274.329 186.708 274.431 186.464 274.431 186.209V149.696C274.431 149.44 274.33 149.195 274.149 149.015C273.969 148.834 273.724 148.732 273.469 148.732H218.868C218.613 148.732 218.368 148.834 218.188 149.015C218.007 149.195 217.906 149.44 217.906 149.696V149.696Z" fill="#6C63FF"/>
<path d="M215.442 193.973C215.544 194.1 215.673 194.203 215.82 194.273C215.967 194.344 216.129 194.38 216.292 194.379H275.748C275.91 194.379 276.071 194.342 276.218 194.272C276.364 194.202 276.494 194.101 276.596 193.975C276.699 193.848 276.772 193.701 276.81 193.543C276.848 193.385 276.851 193.221 276.817 193.062L275.894 188.681C275.856 188.502 275.774 188.336 275.655 188.197C275.536 188.059 275.384 187.952 275.213 187.887C275.089 187.838 274.958 187.814 274.825 187.814H217.211C217.078 187.814 216.947 187.838 216.823 187.887C216.652 187.952 216.5 188.059 216.381 188.197C216.262 188.336 216.18 188.502 216.142 188.681L215.219 193.062C215.186 193.221 215.189 193.385 215.228 193.542C215.266 193.7 215.339 193.847 215.442 193.973V193.973Z" fill="#2F2E41"/>
<path d="M272.785 189.701H274.189C274.307 189.701 274.403 189.605 274.403 189.487V188.816C274.403 188.698 274.307 188.603 274.189 188.603H272.785C272.667 188.603 272.571 188.698 272.571 188.816V189.487C272.571 189.605 272.667 189.701 272.785 189.701Z" fill="#3F3D56"/>
<path d="M269.122 189.701H270.527C270.645 189.701 270.74 189.605 270.74 189.487V188.816C270.74 188.698 270.645 188.603 270.527 188.603H269.122C269.005 188.603 268.909 188.698 268.909 188.816V189.487C268.909 189.605 269.005 189.701 269.122 189.701Z" fill="#3F3D56"/>
<path d="M265.46 189.701H266.864C266.982 189.701 267.078 189.605 267.078 189.487V188.816C267.078 188.698 266.982 188.603 266.864 188.603H265.46C265.342 188.603 265.247 188.698 265.247 188.816V189.487C265.247 189.605 265.342 189.701 265.46 189.701Z" fill="#3F3D56"/>
<path d="M261.798 189.701H263.202C263.32 189.701 263.415 189.605 263.415 189.487V188.816C263.415 188.698 263.32 188.603 263.202 188.603H261.798C261.68 188.603 261.584 188.698 261.584 188.816V189.487C261.584 189.605 261.68 189.701 261.798 189.701Z" fill="#3F3D56"/>
<path d="M258.135 189.701H259.54C259.657 189.701 259.753 189.605 259.753 189.487V188.816C259.753 188.698 259.657 188.603 259.54 188.603H258.135C258.017 188.603 257.922 188.698 257.922 188.816V189.487C257.922 189.605 258.017 189.701 258.135 189.701Z" fill="#3F3D56"/>
<path d="M254.473 189.701H255.877C255.995 189.701 256.09 189.605 256.09 189.487V188.816C256.09 188.698 255.995 188.603 255.877 188.603H254.473C254.355 188.603 254.259 188.698 254.259 188.816V189.487C254.259 189.605 254.355 189.701 254.473 189.701Z" fill="#3F3D56"/>
<path d="M250.81 189.701H252.215C252.332 189.701 252.428 189.605 252.428 189.487V188.816C252.428 188.698 252.332 188.603 252.215 188.603H250.81C250.692 188.603 250.597 188.698 250.597 188.816V189.487C250.597 189.605 250.692 189.701 250.81 189.701Z" fill="#3F3D56"/>
<path d="M247.148 189.701H248.552C248.67 189.701 248.766 189.605 248.766 189.487V188.816C248.766 188.698 248.67 188.603 248.552 188.603H247.148C247.03 188.603 246.934 188.698 246.934 188.816V189.487C246.934 189.605 247.03 189.701 247.148 189.701Z" fill="#3F3D56"/>
<path d="M243.485 189.701H244.89C245.008 189.701 245.103 189.605 245.103 189.487V188.816C245.103 188.698 245.008 188.603 244.89 188.603H243.485C243.367 188.603 243.272 188.698 243.272 188.816V189.487C243.272 189.605 243.367 189.701 243.485 189.701Z" fill="#3F3D56"/>
<path d="M239.823 189.701H241.227C241.345 189.701 241.441 189.605 241.441 189.487V188.816C241.441 188.698 241.345 188.603 241.227 188.603H239.823C239.705 188.603 239.609 188.698 239.609 188.816V189.487C239.609 189.605 239.705 189.701 239.823 189.701Z" fill="#3F3D56"/>
<path d="M236.16 189.701H237.565C237.683 189.701 237.778 189.605 237.778 189.487V188.816C237.778 188.698 237.683 188.603 237.565 188.603H236.16C236.043 188.603 235.947 188.698 235.947 188.816V189.487C235.947 189.605 236.043 189.701 236.16 189.701Z" fill="#3F3D56"/>
<path d="M232.498 189.701H233.902C234.02 189.701 234.116 189.605 234.116 189.487V188.816C234.116 188.698 234.02 188.603 233.902 188.603H232.498C232.38 188.603 232.285 188.698 232.285 188.816V189.487C232.285 189.605 232.38 189.701 232.498 189.701Z" fill="#3F3D56"/>
<path d="M228.836 189.701H230.24C230.358 189.701 230.453 189.605 230.453 189.487V188.816C230.453 188.698 230.358 188.603 230.24 188.603H228.836C228.718 188.603 228.622 188.698 228.622 188.816V189.487C228.622 189.605 228.718 189.701 228.836 189.701Z" fill="#3F3D56"/>
<path d="M225.173 189.701H226.578C226.695 189.701 226.791 189.605 226.791 189.487V188.816C226.791 188.698 226.695 188.603 226.578 188.603H225.173C225.055 188.603 224.96 188.698 224.96 188.816V189.487C224.96 189.605 225.055 189.701 225.173 189.701Z" fill="#3F3D56"/>
<path d="M221.511 189.701H222.915C223.033 189.701 223.129 189.605 223.129 189.487V188.816C223.129 188.698 223.033 188.603 222.915 188.603H221.511C221.393 188.603 221.297 188.698 221.297 188.816V189.487C221.297 189.605 221.393 189.701 221.511 189.701Z" fill="#3F3D56"/>
<path d="M217.848 189.701H219.253C219.371 189.701 219.466 189.605 219.466 189.487V188.816C219.466 188.698 219.371 188.603 219.253 188.603H217.848C217.73 188.603 217.635 188.698 217.635 188.816V189.487C217.635 189.605 217.73 189.701 217.848 189.701Z" fill="#3F3D56"/>
<path d="M272.828 191.53H274.233C274.35 191.53 274.446 191.435 274.446 191.317V190.646C274.446 190.528 274.35 190.432 274.233 190.432H272.828C272.71 190.432 272.615 190.528 272.615 190.646V191.317C272.615 191.435 272.71 191.53 272.828 191.53Z" fill="#3F3D56"/>
<path d="M269.166 191.53H270.57C270.688 191.53 270.784 191.435 270.784 191.317V190.646C270.784 190.528 270.688 190.432 270.57 190.432H269.166C269.048 190.432 268.952 190.528 268.952 190.646V191.317C268.952 191.435 269.048 191.53 269.166 191.53Z" fill="#3F3D56"/>
<path d="M265.503 191.53H266.908C267.026 191.53 267.121 191.435 267.121 191.317V190.646C267.121 190.528 267.026 190.432 266.908 190.432H265.503C265.385 190.432 265.29 190.528 265.29 190.646V191.317C265.29 191.435 265.385 191.53 265.503 191.53Z" fill="#3F3D56"/>
<path d="M261.841 191.53H263.245C263.363 191.53 263.459 191.435 263.459 191.317V190.646C263.459 190.528 263.363 190.432 263.245 190.432H261.841C261.723 190.432 261.627 190.528 261.627 190.646V191.317C261.627 191.435 261.723 191.53 261.841 191.53Z" fill="#3F3D56"/>
<path d="M258.178 191.53H259.583C259.701 191.53 259.796 191.435 259.796 191.317V190.646C259.796 190.528 259.701 190.432 259.583 190.432H258.178C258.061 190.432 257.965 190.528 257.965 190.646V191.317C257.965 191.435 258.061 191.53 258.178 191.53Z" fill="#3F3D56"/>
<path d="M254.516 191.53H255.92C256.038 191.53 256.134 191.435 256.134 191.317V190.646C256.134 190.528 256.038 190.432 255.92 190.432H254.516C254.398 190.432 254.303 190.528 254.303 190.646V191.317C254.303 191.435 254.398 191.53 254.516 191.53Z" fill="#3F3D56"/>
<path d="M250.854 191.53H252.258C252.376 191.53 252.471 191.435 252.471 191.317V190.646C252.471 190.528 252.376 190.432 252.258 190.432H250.854C250.736 190.432 250.64 190.528 250.64 190.646V191.317C250.64 191.435 250.736 191.53 250.854 191.53Z" fill="#3F3D56"/>
<path d="M247.191 191.53H248.595C248.713 191.53 248.809 191.435 248.809 191.317V190.646C248.809 190.528 248.713 190.432 248.595 190.432H247.191C247.073 190.432 246.978 190.528 246.978 190.646V191.317C246.978 191.435 247.073 191.53 247.191 191.53Z" fill="#3F3D56"/>
<path d="M243.529 191.53H244.933C245.051 191.53 245.146 191.435 245.146 191.317V190.646C245.146 190.528 245.051 190.432 244.933 190.432H243.529C243.411 190.432 243.315 190.528 243.315 190.646V191.317C243.315 191.435 243.411 191.53 243.529 191.53Z" fill="#3F3D56"/>
<path d="M239.866 191.53H241.271C241.388 191.53 241.484 191.435 241.484 191.317V190.646C241.484 190.528 241.388 190.432 241.271 190.432H239.866C239.748 190.432 239.653 190.528 239.653 190.646V191.317C239.653 191.435 239.748 191.53 239.866 191.53Z" fill="#3F3D56"/>
<path d="M236.204 191.53H237.608C237.726 191.53 237.822 191.435 237.822 191.317V190.646C237.822 190.528 237.726 190.432 237.608 190.432H236.204C236.086 190.432 235.99 190.528 235.99 190.646V191.317C235.99 191.435 236.086 191.53 236.204 191.53Z" fill="#3F3D56"/>
<path d="M232.541 191.53H233.946C234.064 191.53 234.159 191.435 234.159 191.317V190.646C234.159 190.528 234.064 190.432 233.946 190.432H232.541C232.423 190.432 232.328 190.528 232.328 190.646V191.317C232.328 191.435 232.423 191.53 232.541 191.53Z" fill="#3F3D56"/>
<path d="M228.879 191.53H230.283C230.401 191.53 230.497 191.435 230.497 191.317V190.646C230.497 190.528 230.401 190.432 230.283 190.432H228.879C228.761 190.432 228.665 190.528 228.665 190.646V191.317C228.665 191.435 228.761 191.53 228.879 191.53Z" fill="#3F3D56"/>
<path d="M225.216 191.53H226.621C226.739 191.53 226.834 191.435 226.834 191.317V190.646C226.834 190.528 226.739 190.432 226.621 190.432H225.216C225.099 190.432 225.003 190.528 225.003 190.646V191.317C225.003 191.435 225.099 191.53 225.216 191.53Z" fill="#3F3D56"/>
<path d="M221.554 191.53H222.958C223.076 191.53 223.172 191.435 223.172 191.317V190.646C223.172 190.528 223.076 190.432 222.958 190.432H221.554C221.436 190.432 221.341 190.528 221.341 190.646V191.317C221.341 191.435 221.436 191.53 221.554 191.53Z" fill="#3F3D56"/>
<path d="M217.892 191.53H219.296C219.414 191.53 219.509 191.435 219.509 191.317V190.646C219.509 190.528 219.414 190.432 219.296 190.432H217.892C217.774 190.432 217.678 190.528 217.678 190.646V191.317C217.678 191.435 217.774 191.53 217.892 191.53Z" fill="#3F3D56"/>
<path d="M242.43 193.726H256.653C256.771 193.726 256.866 193.631 256.866 193.513V192.841C256.866 192.724 256.771 192.628 256.653 192.628H242.43C242.312 192.628 242.216 192.724 242.216 192.841V193.513C242.216 193.631 242.312 193.726 242.43 193.726Z" fill="#3F3D56"/>
<path d="M227.361 156.72H226.118C225.741 156.72 225.435 157.025 225.435 157.402C225.435 157.779 225.741 158.084 226.118 158.084H227.361C227.738 158.084 228.044 157.779 228.044 157.402C228.044 157.025 227.738 156.72 227.361 156.72Z" fill="white"/>
<path d="M241.58 156.72H240.337C239.96 156.72 239.655 157.025 239.655 157.402C239.655 157.779 239.96 158.084 240.337 158.084H241.58C241.957 158.084 242.263 157.779 242.263 157.402C242.263 157.025 241.957 156.72 241.58 156.72Z" fill="white"/>
<path d="M245.609 156.72H244.366C243.989 156.72 243.683 157.025 243.683 157.402C243.683 157.779 243.989 158.084 244.366 158.084H245.609C245.986 158.084 246.292 157.779 246.292 157.402C246.292 157.025 245.986 156.72 245.609 156.72Z" fill="white"/>
<path d="M237.713 156.606H229.986C229.609 156.606 229.303 156.912 229.303 157.288C229.303 157.665 229.609 157.97 229.986 157.97H237.713C238.09 157.97 238.395 157.665 238.395 157.288C238.395 156.912 238.09 156.606 237.713 156.606Z" fill="white"/>
<path d="M256.672 156.606H248.944C248.568 156.606 248.262 156.912 248.262 157.288C248.262 157.665 248.568 157.97 248.944 157.97H256.672C257.049 157.97 257.354 157.665 257.354 157.288C257.354 156.912 257.049 156.606 256.672 156.606Z" fill="white"/>
<path d="M231.153 159.799H229.91C229.533 159.799 229.227 160.104 229.227 160.481C229.227 160.857 229.533 161.162 229.91 161.162H231.153C231.53 161.162 231.835 160.857 231.835 160.481C231.835 160.104 231.53 159.799 231.153 159.799Z" fill="white"/>
<path d="M245.372 159.799H244.129C243.752 159.799 243.446 160.104 243.446 160.481C243.446 160.857 243.752 161.162 244.129 161.162H245.372C245.749 161.162 246.055 160.857 246.055 160.481C246.055 160.104 245.749 159.799 245.372 159.799Z" fill="white"/>
<path d="M249.401 159.799H248.158C247.781 159.799 247.475 160.104 247.475 160.481C247.475 160.857 247.781 161.162 248.158 161.162H249.401C249.778 161.162 250.083 160.857 250.083 160.481C250.083 160.104 249.778 159.799 249.401 159.799Z" fill="white"/>
<path d="M241.504 159.685H233.777C233.4 159.685 233.095 159.99 233.095 160.367C233.095 160.743 233.4 161.049 233.777 161.049H241.504C241.881 161.049 242.187 160.743 242.187 160.367C242.187 159.99 241.881 159.685 241.504 159.685Z" fill="white"/>
<path d="M260.463 159.685H252.736C252.359 159.685 252.054 159.99 252.054 160.367C252.054 160.743 252.359 161.049 252.736 161.049H260.463C260.84 161.049 261.146 160.743 261.146 160.367C261.146 159.99 260.84 159.685 260.463 159.685Z" fill="white"/>
<path d="M234.945 162.877H233.701C233.325 162.877 233.019 163.182 233.019 163.559C233.019 163.936 233.325 164.241 233.701 164.241H234.945C235.322 164.241 235.627 163.936 235.627 163.559C235.627 163.182 235.322 162.877 234.945 162.877Z" fill="white"/>
<path d="M249.164 162.877H247.921C247.544 162.877 247.238 163.182 247.238 163.559C247.238 163.936 247.544 164.241 247.921 164.241H249.164C249.541 164.241 249.846 163.936 249.846 163.559C249.846 163.182 249.541 162.877 249.164 162.877Z" fill="white"/>
<path d="M253.193 162.877H251.949C251.572 162.877 251.267 163.182 251.267 163.559C251.267 163.936 251.572 164.241 251.949 164.241H253.193C253.57 164.241 253.875 163.936 253.875 163.559C253.875 163.182 253.57 162.877 253.193 162.877Z" fill="white"/>
<path d="M245.296 162.763H237.569C237.192 162.763 236.887 163.069 236.887 163.445C236.887 163.822 237.192 164.127 237.569 164.127H245.296C245.673 164.127 245.979 163.822 245.979 163.445C245.979 163.069 245.673 162.763 245.296 162.763Z" fill="white"/>
<path d="M264.255 162.763H256.528C256.151 162.763 255.845 163.069 255.845 163.445C255.845 163.822 256.151 164.127 256.528 164.127H264.255C264.632 164.127 264.938 163.822 264.938 163.445C264.938 163.069 264.632 162.763 264.255 162.763Z" fill="white"/>
<path d="M238.737 165.955H237.493C237.116 165.955 236.811 166.261 236.811 166.637C236.811 167.014 237.116 167.319 237.493 167.319H238.737C239.113 167.319 239.419 167.014 239.419 166.637C239.419 166.261 239.113 165.955 238.737 165.955Z" fill="white"/>
<path d="M252.956 165.955H251.712C251.335 165.955 251.03 166.261 251.03 166.637C251.03 167.014 251.335 167.319 251.712 167.319H252.956C253.333 167.319 253.638 167.014 253.638 166.637C253.638 166.261 253.333 165.955 252.956 165.955Z" fill="white"/>
<path d="M256.984 165.955H255.741C255.364 165.955 255.059 166.261 255.059 166.637C255.059 167.014 255.364 167.319 255.741 167.319H256.984C257.361 167.319 257.667 167.014 257.667 166.637C257.667 166.261 257.361 165.955 256.984 165.955Z" fill="white"/>
<path d="M249.088 165.842H241.361C240.984 165.842 240.678 166.147 240.678 166.524C240.678 166.9 240.984 167.206 241.361 167.206H249.088C249.465 167.206 249.771 166.9 249.771 166.524C249.771 166.147 249.465 165.842 249.088 165.842Z" fill="white"/>
<path d="M241.58 178.197H240.337C239.96 178.197 239.655 178.502 239.655 178.879C239.655 179.255 239.96 179.561 240.337 179.561H241.58C241.957 179.561 242.263 179.255 242.263 178.879C242.263 178.502 241.957 178.197 241.58 178.197Z" fill="white"/>
<path d="M245.609 178.197H244.366C243.989 178.197 243.683 178.502 243.683 178.879C243.683 179.255 243.989 179.561 244.366 179.561H245.609C245.986 179.561 246.292 179.255 246.292 178.879C246.292 178.502 245.986 178.197 245.609 178.197Z" fill="white"/>
<path d="M256.672 178.31H248.944C248.568 178.31 248.262 178.616 248.262 178.992C248.262 179.369 248.568 179.674 248.944 179.674H256.672C257.049 179.674 257.354 179.369 257.354 178.992C257.354 178.616 257.049 178.31 256.672 178.31Z" fill="white"/>
<path d="M227.361 178.197H226.118C225.741 178.197 225.435 178.502 225.435 178.879C225.435 179.255 225.741 179.561 226.118 179.561H227.361C227.738 179.561 228.044 179.255 228.044 178.879C228.044 178.502 227.738 178.197 227.361 178.197Z" fill="white"/>
<path d="M237.713 178.31H229.986C229.609 178.31 229.303 178.616 229.303 178.992C229.303 179.369 229.609 179.674 229.986 179.674H237.713C238.09 179.674 238.395 179.369 238.395 178.992C238.395 178.616 238.09 178.31 237.713 178.31Z" fill="white"/>
<path d="M231.153 175.118H229.91C229.533 175.118 229.227 175.423 229.227 175.8C229.227 176.177 229.533 176.482 229.91 176.482H231.153C231.53 176.482 231.835 176.177 231.835 175.8C231.835 175.423 231.53 175.118 231.153 175.118Z" fill="white"/>
<path d="M245.372 175.118H244.129C243.752 175.118 243.446 175.423 243.446 175.8C243.446 176.177 243.752 176.482 244.129 176.482H245.372C245.749 176.482 246.055 176.177 246.055 175.8C246.055 175.423 245.749 175.118 245.372 175.118Z" fill="white"/>
<path d="M249.401 175.118H248.158C247.781 175.118 247.475 175.423 247.475 175.8C247.475 176.177 247.781 176.482 248.158 176.482H249.401C249.778 176.482 250.083 176.177 250.083 175.8C250.083 175.423 249.778 175.118 249.401 175.118Z" fill="white"/>
<path d="M241.504 175.232H233.777C233.4 175.232 233.095 175.537 233.095 175.914C233.095 176.29 233.4 176.596 233.777 176.596H241.504C241.881 176.596 242.187 176.29 242.187 175.914C242.187 175.537 241.881 175.232 241.504 175.232Z" fill="white"/>
<path d="M234.945 172.04H233.701C233.325 172.04 233.019 172.345 233.019 172.722C233.019 173.098 233.325 173.404 233.701 173.404H234.945C235.322 173.404 235.627 173.098 235.627 172.722C235.627 172.345 235.322 172.04 234.945 172.04Z" fill="white"/>
<path d="M249.164 172.04H247.921C247.544 172.04 247.238 172.345 247.238 172.722C247.238 173.098 247.544 173.404 247.921 173.404H249.164C249.541 173.404 249.846 173.098 249.846 172.722C249.846 172.345 249.541 172.04 249.164 172.04Z" fill="white"/>
<path d="M253.193 172.04H251.949C251.572 172.04 251.267 172.345 251.267 172.722C251.267 173.098 251.572 173.404 251.949 173.404H253.193C253.57 173.404 253.875 173.098 253.875 172.722C253.875 172.345 253.57 172.04 253.193 172.04Z" fill="white"/>
<path d="M245.296 172.153H237.569C237.192 172.153 236.887 172.459 236.887 172.835C236.887 173.212 237.192 173.517 237.569 173.517H245.296C245.673 173.517 245.979 173.212 245.979 172.835C245.979 172.459 245.673 172.153 245.296 172.153Z" fill="white"/>
<path d="M238.737 168.961H237.493C237.116 168.961 236.811 169.267 236.811 169.643C236.811 170.02 237.116 170.325 237.493 170.325H238.737C239.113 170.325 239.419 170.02 239.419 169.643C239.419 169.267 239.113 168.961 238.737 168.961Z" fill="white"/>
<path d="M252.956 168.961H251.712C251.335 168.961 251.03 169.267 251.03 169.643C251.03 170.02 251.335 170.325 251.712 170.325H252.956C253.333 170.325 253.638 170.02 253.638 169.643C253.638 169.267 253.333 168.961 252.956 168.961Z" fill="white"/>
<path d="M256.984 168.961H255.741C255.364 168.961 255.059 169.267 255.059 169.643C255.059 170.02 255.364 170.325 255.741 170.325H256.984C257.361 170.325 257.667 170.02 257.667 169.643C257.667 169.267 257.361 168.961 256.984 168.961Z" fill="white"/>
<path d="M249.088 169.075H241.361C240.984 169.075 240.678 169.38 240.678 169.757C240.678 170.134 240.984 170.439 241.361 170.439H249.088C249.465 170.439 249.771 170.134 249.771 169.757C249.771 169.38 249.465 169.075 249.088 169.075Z" fill="white"/>
<path d="M220.751 214.275L214.915 205.056L233.235 190.464L240.796 182.093C241.778 181.005 243.029 180.194 244.424 179.741C245.818 179.288 247.307 179.209 248.741 179.51C250.176 179.812 251.506 180.485 252.599 181.462C253.692 182.438 254.509 183.685 254.969 185.076C255.651 187.137 255.504 189.382 254.561 191.338C253.617 193.293 251.95 194.806 249.911 195.557L237.954 199.958L220.751 214.275Z" fill="#FFB6B6"/>
<path d="M83.8074 147.434V192.239H115.22V147.434C115.221 147.112 115.118 146.798 114.927 146.538C114.736 146.279 114.466 146.087 114.158 145.992C114.013 145.944 113.861 145.921 113.708 145.922H85.3245C85.1256 145.922 84.9285 145.961 84.7445 146.037C84.5606 146.112 84.3934 146.224 84.2525 146.364C84.1116 146.504 83.9997 146.671 83.9234 146.855C83.847 147.038 83.8076 147.235 83.8074 147.434V147.434ZM96.0666 162.829C96.0748 161.946 96.4317 161.101 97.0597 160.48C97.6877 159.858 98.5359 159.509 99.4199 159.509C100.304 159.509 101.152 159.858 101.78 160.48C102.408 161.101 102.765 161.946 102.773 162.829V168.028C102.769 168.914 102.413 169.761 101.785 170.386C101.157 171.011 100.306 171.361 99.4199 171.361C98.5335 171.361 97.6832 171.011 97.0548 170.386C96.4264 169.761 96.0711 168.914 96.0666 168.028V162.829Z" fill="#2F2E41"/>
<path d="M83.7112 190.806V195.127C83.712 195.35 83.8009 195.565 83.9589 195.724C84.1169 195.882 84.3311 195.972 84.555 195.974H114.473C114.697 195.973 114.912 195.883 115.07 195.724C115.228 195.566 115.317 195.351 115.317 195.127V190.806H83.7112Z" fill="#3F3D56"/>
<path d="M34.3904 79.9294V161.737C34.3912 162.779 34.806 163.779 35.5438 164.516C36.2815 165.253 37.2819 165.668 38.3252 165.669H159.649C160.692 165.668 161.693 165.253 162.43 164.516C163.168 163.779 163.583 162.779 163.584 161.737V79.9294C163.581 78.8878 163.166 77.8896 162.428 77.1535C161.691 76.4174 160.691 76.0033 159.649 76.002H38.3252C37.2828 76.0033 36.2834 76.4174 35.5459 77.1535C34.8084 77.8896 34.3929 78.8878 34.3904 79.9294Z" fill="#3F3D56"/>
<path d="M37.2366 80.9473V160.728C37.2375 161.285 37.4594 161.819 37.8536 162.213C38.2477 162.606 38.7821 162.828 39.3395 162.829H158.639C159.197 162.828 159.731 162.606 160.125 162.213C160.519 161.819 160.741 161.285 160.742 160.728V80.9473C160.742 80.3896 160.521 79.8547 160.126 79.4599C159.732 79.0652 159.197 78.8428 158.639 78.8416H39.3395C38.7814 78.8428 38.2466 79.0652 37.8523 79.4599C37.4581 79.8547 37.2366 80.3896 37.2366 80.9473Z" fill="white"/>
<path d="M59.3765 195.681C59.498 195.834 59.6523 195.956 59.828 196.04C60.0037 196.124 60.1961 196.167 60.3908 196.166H131.366C131.56 196.166 131.752 196.123 131.927 196.039C132.102 195.956 132.257 195.834 132.379 195.683C132.501 195.533 132.588 195.357 132.634 195.168C132.68 194.98 132.683 194.783 132.643 194.594L131.541 189.364C131.496 189.151 131.397 188.953 131.255 188.787C131.113 188.621 130.932 188.494 130.728 188.416C130.58 188.358 130.423 188.329 130.265 188.329H61.4882C61.3296 188.329 61.1724 188.358 61.0248 188.416C60.8209 188.494 60.6396 188.621 60.4976 188.787C60.3556 188.953 60.2572 189.151 60.2116 189.364L59.1098 194.594C59.0706 194.783 59.0742 194.979 59.1204 195.168C59.1665 195.356 59.254 195.531 59.3765 195.681Z" fill="#2F2E41"/>
<path d="M154.767 89.8317H43.1393C43.0233 89.8291 42.9129 89.7813 42.8317 89.6984C42.7506 89.6155 42.7051 89.5041 42.7051 89.3881C42.7051 89.2722 42.7506 89.1608 42.8317 89.0779C42.9129 88.995 43.0233 88.9471 43.1393 88.9445H154.767C154.883 88.9471 154.994 88.995 155.075 89.0779C155.156 89.1608 155.202 89.2722 155.202 89.3881C155.202 89.5041 155.156 89.6155 155.075 89.6984C154.994 89.7813 154.883 89.8291 154.767 89.8317V89.8317Z" fill="#3F3D56"/>
<path d="M50.738 86.6798C52.1747 86.6798 53.3395 85.49 53.3395 84.0223C53.3395 82.5546 52.1747 81.3648 50.738 81.3648C49.3012 81.3648 48.1364 82.5546 48.1364 84.0223C48.1364 85.49 49.3012 86.6798 50.738 86.6798Z" fill="#3F3D56"/>
<path d="M59.7251 86.6798C61.1619 86.6798 62.3267 85.49 62.3267 84.0223C62.3267 82.5546 61.1619 81.3648 59.7251 81.3648C58.2883 81.3648 57.1236 82.5546 57.1236 84.0223C57.1236 85.49 58.2883 86.6798 59.7251 86.6798Z" fill="#3F3D56"/>
<path d="M68.7123 86.6798C70.1491 86.6798 71.3138 85.49 71.3138 84.0223C71.3138 82.5546 70.1491 81.3648 68.7123 81.3648C67.2755 81.3648 66.1107 82.5546 66.1107 84.0223C66.1107 85.49 67.2755 86.6798 68.7123 86.6798Z" fill="#3F3D56"/>
<path d="M149.356 82.022H142.972C142.846 82.0249 142.726 82.0771 142.638 82.1673C142.55 82.2575 142.5 82.3786 142.5 82.5047C142.5 82.6308 142.55 82.752 142.638 82.8422C142.726 82.9324 142.846 82.9845 142.972 82.9875H149.356C149.483 82.9857 149.604 82.934 149.693 82.8437C149.782 82.7533 149.832 82.6316 149.832 82.5047C149.832 82.3778 149.782 82.2561 149.693 82.1657C149.604 82.0754 149.483 82.0238 149.356 82.022Z" fill="#3F3D56"/>
<path d="M149.356 83.835H142.972C142.846 83.8378 142.726 83.8899 142.638 83.9801C142.549 84.0703 142.5 84.1915 142.5 84.3177C142.5 84.4439 142.549 84.5651 142.638 84.6554C142.726 84.7456 142.846 84.7977 142.972 84.8005H149.356C149.483 84.7989 149.604 84.7474 149.694 84.657C149.783 84.5667 149.833 84.4448 149.833 84.3177C149.833 84.1907 149.783 84.0688 149.694 83.9784C149.604 83.8881 149.483 83.8365 149.356 83.835V83.835Z" fill="#3F3D56"/>
<path d="M149.356 85.6479H142.972C142.846 85.6509 142.726 85.703 142.638 85.7933C142.55 85.8835 142.5 86.0046 142.5 86.1307C142.5 86.2568 142.55 86.3779 142.638 86.4681C142.726 86.5583 142.846 86.6105 142.972 86.6134H149.356C149.483 86.6116 149.604 86.56 149.693 86.4696C149.782 86.3793 149.832 86.2576 149.832 86.1307C149.832 86.0038 149.782 85.8821 149.693 85.7917C149.604 85.7014 149.483 85.6497 149.356 85.6479V85.6479Z" fill="#3F3D56"/>
<path d="M303.242 192.702C303.435 193.263 303.8 193.748 304.286 194.088C304.771 194.427 305.352 194.605 305.945 194.594L317.528 194.296C318.125 194.285 318.702 194.08 319.174 193.714C319.645 193.347 319.985 192.838 320.143 192.262L321.782 174.749C322.363 175.012 322.996 175.142 323.634 175.13C324.189 175.116 324.735 174.993 325.242 174.768C325.749 174.543 326.207 174.221 326.589 173.819C326.971 173.417 327.271 172.944 327.47 172.427C327.669 171.91 327.765 171.358 327.751 170.804C327.737 170.25 327.614 169.704 327.389 169.198C327.164 168.691 326.841 168.234 326.439 167.852C326.037 167.47 325.564 167.171 325.046 166.971C324.529 166.772 323.977 166.677 323.422 166.691C323.167 166.69 322.913 166.716 322.663 166.77C322.392 166.476 322.062 166.243 321.695 166.085C321.328 165.927 320.932 165.847 320.532 165.851L302.716 166.311C302.568 166.316 302.421 166.334 302.277 166.365C301.886 166.438 301.515 166.594 301.19 166.821C300.864 167.049 300.592 167.344 300.39 167.686C300.188 168.028 300.062 168.41 300.02 168.805C299.978 169.2 300.021 169.599 300.146 169.976L303.242 192.702ZM322.118 173.56L323.284 169.387C323.417 168.905 323.42 168.396 323.293 167.913C323.349 167.912 323.399 167.886 323.456 167.885C324.256 167.869 325.029 168.17 325.607 168.723C326.185 169.275 326.52 170.034 326.539 170.833C326.558 171.632 326.258 172.406 325.707 172.985C325.156 173.564 324.397 173.901 323.597 173.922C323.08 173.938 322.569 173.813 322.118 173.56Z" fill="#2F2E41"/>
<path d="M302.277 166.365C302.656 168.534 306.924 170.058 312.055 169.793C316.774 169.576 320.632 167.921 321.339 165.958C321.077 165.881 320.805 165.845 320.532 165.851L302.716 166.311C302.568 166.316 302.421 166.334 302.277 166.365V166.365Z" fill="#3F3D56"/>
<path d="M312.996 183.079C313.019 183.073 313.041 183.063 313.062 183.05L315.577 181.405C315.607 181.385 315.632 181.358 315.649 181.326C315.667 181.294 315.676 181.258 315.676 181.222C315.676 181.186 315.667 181.15 315.65 181.118C315.632 181.086 315.607 181.059 315.577 181.039L312.963 179.328C312.939 179.312 312.912 179.301 312.883 179.296C312.855 179.291 312.826 179.291 312.798 179.297C312.77 179.302 312.743 179.314 312.719 179.33C312.695 179.346 312.675 179.367 312.659 179.391C312.644 179.415 312.633 179.442 312.627 179.47C312.622 179.498 312.622 179.527 312.628 179.555C312.634 179.583 312.646 179.61 312.662 179.634C312.678 179.658 312.699 179.678 312.723 179.693L315.058 181.222L312.822 182.684C312.779 182.713 312.747 182.755 312.732 182.805C312.718 182.854 312.721 182.908 312.742 182.955C312.763 183.002 312.799 183.041 312.846 183.063C312.892 183.086 312.945 183.091 312.996 183.079H312.996Z" fill="#6C63FF"/>
<path d="M309.023 183.262C309.065 183.251 309.103 183.228 309.132 183.196C309.161 183.163 309.18 183.123 309.186 183.08C309.192 183.037 309.185 182.993 309.165 182.954C309.146 182.915 309.116 182.882 309.078 182.861L306.759 181.532L309 179.869C309.023 179.852 309.043 179.831 309.057 179.806C309.072 179.781 309.082 179.754 309.086 179.726C309.09 179.697 309.089 179.669 309.082 179.641C309.075 179.613 309.062 179.587 309.045 179.564C309.028 179.541 309.007 179.521 308.982 179.507C308.958 179.492 308.93 179.482 308.902 179.478C308.873 179.474 308.845 179.475 308.817 179.482C308.789 179.489 308.763 179.502 308.74 179.519L306.231 181.381C306.202 181.403 306.178 181.431 306.163 181.464C306.148 181.497 306.141 181.533 306.143 181.569C306.145 181.605 306.156 181.64 306.175 181.671C306.194 181.702 306.221 181.728 306.252 181.746L308.86 183.24C308.91 183.268 308.968 183.276 309.023 183.262V183.262Z" fill="#6C63FF"/>
<path d="M312.745 184.52C312.767 184.515 312.787 184.507 312.805 184.495C312.83 184.48 312.851 184.461 312.868 184.438C312.885 184.414 312.897 184.388 312.904 184.36C312.911 184.332 312.912 184.303 312.908 184.275C312.903 184.247 312.893 184.219 312.878 184.195L309.313 178.337C309.283 178.288 309.234 178.253 309.178 178.239C309.121 178.225 309.062 178.235 309.013 178.265C308.963 178.295 308.928 178.343 308.914 178.4C308.9 178.456 308.909 178.515 308.939 178.565L312.505 184.422C312.529 184.462 312.566 184.493 312.609 184.511C312.652 184.529 312.7 184.532 312.745 184.52Z" fill="#6C63FF"/>
<path d="M112.291 113.947H92.9707C92.1825 113.947 91.5436 114.585 91.5436 115.373V117.259C91.5436 118.046 92.1825 118.685 92.9707 118.685H112.291C113.079 118.685 113.718 118.046 113.718 117.259V115.373C113.718 114.585 113.079 113.947 112.291 113.947Z" fill="#6C63FF"/>
<path d="M123.553 123.423H81.709C80.9208 123.423 80.2819 124.061 80.2819 124.849V126.735C80.2819 127.522 80.9208 128.161 81.709 128.161H123.553C124.341 128.161 124.98 127.522 124.98 126.735V124.849C124.98 124.061 124.341 123.423 123.553 123.423Z" fill="#E6E6E6"/>
<path d="M123.553 132.899H81.709C80.9208 132.899 80.2819 133.537 80.2819 134.325V136.211C80.2819 136.999 80.9208 137.637 81.709 137.637H123.553C124.341 137.637 124.98 136.999 124.98 136.211V134.325C124.98 133.537 124.341 132.899 123.553 132.899Z" fill="#E6E6E6"/>
<path d="M127.1 164.631L127.195 164.93L127.2 164.94L130.052 173.607L133.334 183.594L139.509 202.362L139.568 205.278V205.288L140.027 228.741L138.755 231.92L140.187 237.133C140.187 237.133 139.529 229.253 135.997 233.778C133.997 236.35 131.658 238.981 129.738 241.448C132.536 242.579 135.379 243.603 138.267 244.518C138.89 244.717 139.519 244.907 140.147 245.096C140.282 245.136 140.416 245.176 140.551 245.216C150.123 248.044 160.02 249.634 169.997 249.945C170.516 249.96 171.024 249.97 171.518 249.98C171.693 249.985 171.862 249.99 172.032 249.99C172.59 249.995 173.144 250 173.703 250C174.83 250 175.952 249.983 177.069 249.95C185.338 249.717 193.559 248.606 201.593 246.636C201.538 243.322 201.388 239.45 201.174 235.313C201.074 233.285 198.835 231.087 198.7 228.964C198.605 227.369 200.615 225.869 200.51 224.25C199.832 214.277 198.984 218.105 198.356 211.044C198.291 210.351 198.231 209.688 198.176 209.055C197.772 204.52 197.493 201.684 197.493 201.684L200.176 184.785L204.391 158.252L204.066 157.719L203.702 157.54L181.473 146.546L180.266 143.456C179.915 142.566 179.304 141.801 178.514 141.26C177.724 140.719 176.79 140.427 175.832 140.421L161.189 140.361C160.429 140.358 159.679 140.535 159.002 140.879C158.325 141.223 157.739 141.724 157.294 142.339L153.329 147.826L127.1 164.631Z" fill="#3F3D56"/>
<path d="M142.885 198.186L139.568 205.278L137.304 210.122L133.409 230.5L131.459 232.568L129.788 225.246L112.301 229.126C111.727 225.942 112.147 229.234 111.793 225.74C111.893 225.641 111.998 225.541 112.102 225.441C112.382 225.182 112.616 224.938 112.611 224.704C112.412 212.653 113.01 192.146 118.008 179.722C118.79 177.693 119.822 175.77 121.08 173.995C121.18 173.861 121.274 173.726 121.369 173.592C123.673 170.367 125.13 167.193 127.195 164.935V164.93C127.207 164.92 127.219 164.908 127.229 164.895C127.237 164.892 127.244 164.887 127.249 164.88L141.434 157.365L142.042 174.449L142.476 186.729L142.885 198.186Z" fill="#3F3D56"/>
<path d="M194.031 200.2L198.174 209.058L199.62 212.142L203.514 232.518L205.458 234.582L207.133 227.262L207.92 227.1L222.11 224.164L226.247 237.29C227.179 235.738 227.546 233.912 227.286 232.12C227.027 230.329 226.156 228.682 224.821 227.458C224.538 227.203 224.303 226.954 224.31 226.719C224.545 212.545 223.677 186.665 215.842 176.014C213.354 172.633 211.861 169.266 209.688 166.914C209.682 166.907 209.682 166.901 209.675 166.901L204.389 158.252L204.066 157.721L203.703 157.539L194.031 200.2Z" fill="#3F3D56"/>
<path d="M168.934 136.197C179.693 136.197 188.415 127.482 188.415 116.731C188.415 105.98 179.693 97.2648 168.934 97.2648C158.175 97.2648 149.453 105.98 149.453 116.731C149.453 127.482 158.175 136.197 168.934 136.197Z" fill="#FFB6B6"/>
<path d="M195.265 103.134C195.114 102.973 194.932 102.844 194.73 102.754C194.527 102.665 194.309 102.617 194.088 102.614L194.381 101.802C194.477 101.546 194.503 101.269 194.456 101C194.41 100.73 194.292 100.478 194.116 100.27C193.94 100.061 193.711 99.9023 193.454 99.8107C193.196 99.719 192.919 99.6975 192.65 99.7482L191.583 99.9536L191.684 99.2415C191.722 98.9763 191.691 98.7056 191.593 98.4561C191.495 98.2066 191.334 97.9868 191.126 97.8184C190.917 97.65 190.668 97.5388 190.403 97.4957C190.139 97.4526 189.867 97.4791 189.616 97.5726C189.387 97.6626 189.141 97.7002 188.896 97.6828C188.651 97.6655 188.413 97.5935 188.199 97.4722C187.985 97.3546 187.799 97.1916 187.654 96.9947C187.509 96.7977 187.408 96.5716 187.36 96.3319L186.988 94.5408L186.949 94.4447C185.139 91.4303 181.659 89.2372 177.4 88.4334C173.61 87.7125 169.723 88.0795 165.976 88.4246C164.49 88.5644 162.811 88.7217 161.412 89.578C160.223 90.3119 159.217 91.7798 159.423 93.2608C155.728 92.1293 151.767 94.3879 149.804 97.2362C147.478 100.626 147.098 104.873 147.037 108.193C146.871 116.048 148.493 122.474 151.846 127.297C152.091 127.647 152.152 128.376 152.637 128.621L152.537 128.459C153.079 128.73 153.63 129.167 153.424 129.634C152.834 130.98 156.756 133.955 159.519 134.938C164.56 136.733 171.262 136.58 175.975 135.934L176.141 134.82C177.842 134.588 179.04 134.147 179.377 133.457C179.971 132.95 180.478 132.496 180.92 132.076L180.924 132.072C180.933 132.063 180.951 132.05 180.959 132.041C183.088 130.001 183.583 128.839 183.805 127.07C184.02 125.335 183.639 123.575 183.25 121.989C191.443 123.256 180.024 113.269 187.657 111.338C187.745 111.311 187.834 111.289 187.924 111.273C188.147 111.22 188.37 111.168 188.584 111.107C189.617 110.827 190.606 110.405 191.522 109.853C193.656 108.555 194.36 106.834 195.461 104.895C195.62 104.618 195.687 104.299 195.652 103.982C195.616 103.665 195.481 103.368 195.265 103.134V103.134Z" fill="#2F2E41"/>
<path d="M237.835 201.586C237.831 202.351 237.822 203.421 237.787 204.745C237.783 204.928 237.778 205.116 237.774 205.308C237.717 207.742 237.66 209.782 237.568 212.049C237.564 212.206 237.56 212.359 237.551 212.516C237.428 215.679 237.236 219.362 236.904 225.194C236.287 235.967 235.212 226.675 234.132 230.454C234.079 230.642 234.023 230.865 233.97 231.127C233.807 232.078 233.531 233.006 233.148 233.892C232.575 234.233 231.985 234.561 231.404 234.888C229.747 235.81 228.064 236.697 226.367 237.54C225.414 238.012 224.457 238.475 223.495 238.921C223.342 238.991 223.193 239.06 223.044 239.126C218.119 241.403 213.043 243.338 207.852 244.919C206.837 245.225 205.827 245.522 204.804 245.797C203.738 246.094 202.671 246.374 201.591 246.636C193.557 248.606 185.337 249.718 177.068 249.952C175.953 249.987 174.83 250 173.702 250C173.142 250 172.591 249.995 172.032 249.991C171.861 249.991 171.691 249.987 171.52 249.982C171.026 249.969 170.514 249.96 169.999 249.947C160.021 249.636 150.125 248.046 140.553 245.216L140.146 245.098C139.517 244.906 138.892 244.718 138.266 244.517C135.381 243.604 132.538 242.582 129.737 241.45C127.599 240.59 125.486 239.666 123.397 238.68C123.378 238.675 123.36 238.666 123.345 238.654C122.907 238.453 122.466 238.244 122.029 238.029C121.972 237.999 121.911 237.968 121.849 237.938C120.219 237.143 118.605 236.31 117.01 235.439C115.667 232.359 113.779 231.769 112.607 229.061C112.266 228.256 112.019 227.414 111.872 226.553C111.872 226.544 111.868 226.536 111.868 226.522C111.991 228.148 111.348 223.639 111.864 226.505C111.859 226.453 111.855 226.396 111.851 226.33C111.837 226.173 111.82 225.981 111.794 225.74C110.294 211.11 110.39 194.378 109.739 180.59C109.695 179.699 109.65 178.846 109.603 178.03C109.59 177.759 109.573 177.493 109.555 177.231C109.586 177.152 109.621 177.069 109.66 176.99C109.669 176.968 109.679 176.946 109.691 176.925C109.704 176.898 109.718 176.872 109.735 176.846C109.743 176.833 109.756 176.816 109.765 176.803C109.772 176.788 109.779 176.773 109.787 176.759C109.826 176.698 109.87 176.632 109.918 176.571C109.94 176.545 109.958 176.523 109.979 176.501C109.994 176.479 110.012 176.458 110.032 176.44C110.045 176.419 110.061 176.4 110.08 176.383C110.097 176.366 110.115 176.344 110.137 176.322C110.146 176.308 110.158 176.297 110.172 176.287C110.206 176.247 110.244 176.211 110.285 176.178C110.441 176.035 110.608 175.903 110.784 175.785C110.845 175.745 110.911 175.706 110.972 175.662C111.412 175.399 111.876 175.177 112.358 174.998C112.524 174.937 112.69 174.88 112.869 174.819C112.935 174.802 112.996 174.78 113.062 174.758C113.158 174.728 113.254 174.697 113.355 174.675C113.853 174.527 114.391 174.4 114.972 174.282C115.042 174.269 115.117 174.256 115.191 174.238C115.296 174.216 115.405 174.199 115.514 174.181C115.663 174.155 115.816 174.129 115.969 174.103C117.268 173.898 118.741 173.745 120.367 173.644C120.52 173.635 120.673 173.627 120.826 173.618C121.006 173.609 121.185 173.6 121.369 173.592C121.522 173.583 121.679 173.579 121.836 173.574C121.989 173.565 122.147 173.561 122.309 173.557C122.75 173.544 123.205 173.531 123.668 173.522C124.989 173.496 126.379 173.504 127.839 173.535C128.517 173.552 129.208 173.57 129.916 173.6C129.964 173.6 130.008 173.605 130.051 173.605C130.668 173.627 131.289 173.653 131.927 173.688C132.373 173.71 132.823 173.732 133.274 173.758C133.698 173.784 134.126 173.81 134.559 173.841C134.896 173.858 135.232 173.884 135.573 173.906C135.862 173.928 136.15 173.95 136.439 173.967L136.832 173.994C137.047 174.011 137.261 174.024 137.479 174.046C137.96 174.085 138.441 174.125 138.931 174.164C139.416 174.208 139.91 174.251 140.404 174.295C140.898 174.339 141.397 174.387 141.895 174.435C141.948 174.439 141.996 174.444 142.044 174.448C142.499 174.496 142.953 174.54 143.412 174.588C143.517 174.596 143.627 174.605 143.731 174.618C144.169 174.662 144.615 174.714 145.057 174.761C145.193 174.775 145.327 174.789 145.463 174.804C145.809 174.842 146.15 174.875 146.499 174.915C146.958 174.968 147.426 175.016 147.88 175.077C148.235 175.116 148.589 175.156 148.943 175.199C149.498 175.265 150.062 175.335 150.626 175.409C150.84 175.435 151.055 175.461 151.269 175.492C152.878 175.693 154.504 175.916 156.157 176.147C158.662 176.501 161.206 176.886 163.768 177.301C166.335 177.716 168.916 178.154 171.511 178.616C172.167 178.734 172.823 178.852 173.483 178.974C173.78 179.031 174.078 179.087 174.375 179.144C174.882 179.236 175.389 179.332 175.896 179.428C176.404 179.524 176.911 179.62 177.418 179.721C178.021 179.839 178.629 179.957 179.232 180.075C183.206 180.861 187.159 181.7 191.015 182.578C191.649 182.722 192.283 182.871 192.912 183.015C194.172 183.308 195.419 183.605 196.655 183.906C196.996 183.985 197.332 184.068 197.669 184.151C198.509 184.36 199.348 184.57 200.174 184.784L200.319 184.824C200.926 184.972 201.521 185.125 202.115 185.282C203.519 185.649 204.899 186.021 206.256 186.396C207.156 186.645 208.047 186.897 208.927 187.152C210.243 187.532 211.533 187.917 212.788 188.305C213.098 188.401 213.408 188.498 213.714 188.589C214.633 188.873 215.538 189.162 216.416 189.45C217.116 189.677 217.798 189.909 218.471 190.14C219.145 190.372 219.805 190.603 220.452 190.835C220.867 190.983 221.278 191.141 221.689 191.289C222.279 191.508 222.861 191.726 223.429 191.944C223.604 192.01 223.775 192.08 223.945 192.145C224.054 192.193 224.159 192.233 224.264 192.276C224.47 192.359 224.68 192.438 224.881 192.521C225.086 192.6 225.287 192.683 225.488 192.77C225.685 192.849 225.886 192.932 226.079 193.015C226.275 193.093 226.468 193.176 226.66 193.264C226.822 193.329 226.979 193.399 227.132 193.469C227.443 193.605 227.753 193.74 228.055 193.88C228.203 193.95 228.352 194.015 228.501 194.085L228.842 194.242C228.89 194.269 228.938 194.29 228.986 194.312C229.095 194.365 229.209 194.421 229.318 194.474C229.572 194.592 229.821 194.719 230.066 194.837C230.394 195.003 230.713 195.169 231.019 195.33C231.329 195.496 231.631 195.662 231.92 195.824C231.968 195.85 232.011 195.876 232.06 195.902C232.125 195.937 232.191 195.977 232.256 196.012C232.479 196.138 232.693 196.269 232.908 196.396C233.327 196.654 233.725 196.907 234.097 197.161C234.18 197.217 234.259 197.274 234.342 197.327C234.617 197.523 234.879 197.715 235.124 197.912C235.124 197.916 235.124 197.916 235.129 197.916C235.212 197.978 235.29 198.043 235.369 198.104C235.435 198.165 235.505 198.218 235.57 198.279C235.798 198.476 236.007 198.663 236.2 198.856C236.264 198.915 236.326 198.978 236.383 199.044C236.409 199.065 236.432 199.088 236.453 199.113C236.541 199.201 236.62 199.288 236.694 199.375C236.705 199.388 236.716 199.401 236.724 199.415C236.829 199.537 236.926 199.659 237.017 199.782C237.061 199.843 237.109 199.904 237.149 199.965C237.201 200.04 237.253 200.118 237.297 200.192C237.337 200.254 237.372 200.319 237.406 200.38C237.499 200.538 237.578 200.703 237.643 200.874C237.692 200.99 237.731 201.11 237.761 201.232C237.794 201.348 237.819 201.467 237.835 201.586V201.586Z" fill="#2F2E41"/>
<path opacity="0.2" d="M237.835 201.586C237.831 202.351 237.822 203.421 237.787 204.745C237.783 204.928 237.774 205.116 237.769 205.308C237.726 207.165 237.66 209.458 237.568 212.049C237.564 212.206 237.56 212.359 237.551 212.516C237.428 215.679 237.236 219.362 236.904 225.194C236.287 235.967 235.212 226.675 234.132 230.454C231.133 228.611 227.845 226.68 224.33 224.696C223.696 224.338 223.056 223.978 222.41 223.617C215.38 219.699 207.528 215.592 199.331 211.525C199.007 211.363 198.679 211.201 198.356 211.044C179.578 201.77 159.082 192.748 142.477 186.728C139.272 185.566 136.212 184.518 133.335 183.596C127.275 181.661 122.037 180.306 118.006 179.721C113.809 179.109 110.911 179.328 109.739 180.59C109.695 179.699 109.65 178.846 109.603 178.03C109.586 177.759 109.568 177.493 109.551 177.231C109.578 177.159 109.613 177.09 109.647 177.021C109.652 177.011 109.655 177 109.66 176.99C109.669 176.968 109.679 176.946 109.691 176.925C109.704 176.898 109.718 176.872 109.735 176.846C109.749 176.815 109.766 176.786 109.787 176.759C109.826 176.698 109.87 176.632 109.918 176.571C109.954 176.525 109.991 176.482 110.032 176.44C110.045 176.419 110.061 176.4 110.08 176.383C110.097 176.366 110.115 176.344 110.137 176.322C110.146 176.308 110.158 176.296 110.172 176.287C110.206 176.247 110.244 176.211 110.285 176.178C110.441 176.035 110.608 175.903 110.784 175.785C110.845 175.745 110.911 175.706 110.972 175.662C111.412 175.399 111.876 175.177 112.358 174.998C112.524 174.937 112.69 174.88 112.869 174.819C112.935 174.802 112.996 174.78 113.062 174.758C113.158 174.728 113.254 174.697 113.355 174.675C113.853 174.527 114.391 174.4 114.972 174.282C115.147 174.247 115.331 174.212 115.514 174.181C115.663 174.155 115.816 174.129 115.969 174.103C117.268 173.897 118.741 173.745 120.367 173.644C120.52 173.635 120.673 173.627 120.826 173.618C121.006 173.609 121.185 173.6 121.368 173.592C121.522 173.583 121.679 173.579 121.836 173.574C121.989 173.565 122.147 173.561 122.308 173.557C122.75 173.544 123.205 173.531 123.668 173.522C124.989 173.5 126.379 173.509 127.839 173.539C128.517 173.552 129.208 173.574 129.916 173.605C129.96 173.605 130.008 173.609 130.051 173.609C130.668 173.627 131.293 173.657 131.927 173.688C132.373 173.71 132.823 173.731 133.274 173.758C133.698 173.784 134.126 173.81 134.559 173.841C134.896 173.858 135.232 173.884 135.573 173.906C135.862 173.928 136.15 173.95 136.439 173.967C136.784 173.994 137.13 174.02 137.479 174.046C137.96 174.085 138.441 174.125 138.931 174.164C139.416 174.208 139.91 174.251 140.404 174.295C140.898 174.339 141.397 174.387 141.895 174.435C141.948 174.439 141.996 174.444 142.044 174.448C142.499 174.496 142.953 174.54 143.412 174.588C145.957 174.845 148.576 175.147 151.269 175.492C152.878 175.697 154.507 175.917 156.157 176.152C158.662 176.506 161.206 176.89 163.768 177.301C166.335 177.716 168.916 178.154 171.511 178.616C172.167 178.734 172.823 178.852 173.483 178.974C174.288 179.122 175.092 179.274 175.896 179.428C176.404 179.524 176.911 179.62 177.418 179.721C178.021 179.839 178.629 179.957 179.232 180.075C183.206 180.861 187.159 181.7 191.015 182.578C191.649 182.722 192.283 182.871 192.912 183.015C194.172 183.308 195.419 183.605 196.655 183.906C196.996 183.989 197.332 184.072 197.669 184.155C198.513 184.365 199.348 184.574 200.174 184.784V184.789C200.222 184.797 200.27 184.81 200.319 184.824C200.922 184.976 201.521 185.129 202.115 185.287C203.519 185.654 204.899 186.023 206.256 186.396C207.156 186.65 208.048 186.899 208.927 187.152C210.243 187.536 211.533 187.921 212.788 188.305C213.098 188.401 213.408 188.498 213.714 188.589C214.633 188.878 215.533 189.164 216.416 189.45C217.116 189.677 217.798 189.909 218.471 190.14C219.145 190.372 219.805 190.603 220.452 190.835C220.871 190.983 221.282 191.136 221.689 191.285C222.284 191.503 222.861 191.722 223.429 191.944C223.604 192.01 223.775 192.08 223.945 192.145C224.264 192.268 224.575 192.394 224.881 192.521C225.086 192.6 225.287 192.683 225.488 192.77C225.685 192.849 225.886 192.932 226.079 193.015C226.275 193.093 226.468 193.176 226.66 193.264C226.822 193.329 226.979 193.399 227.132 193.469C227.443 193.605 227.753 193.74 228.055 193.88C228.203 193.95 228.352 194.015 228.501 194.085L228.842 194.242C228.89 194.269 228.938 194.29 228.986 194.312C229.358 194.487 229.716 194.662 230.066 194.836C230.394 195.002 230.713 195.168 231.019 195.33C231.382 195.522 231.727 195.71 232.06 195.902C232.125 195.937 232.191 195.977 232.256 196.012C232.479 196.138 232.693 196.269 232.908 196.396C233.327 196.654 233.725 196.907 234.097 197.161C234.464 197.414 234.805 197.663 235.124 197.912C235.124 197.916 235.124 197.916 235.129 197.916C235.282 198.039 235.43 198.161 235.57 198.279C235.798 198.476 236.007 198.663 236.2 198.856C236.264 198.915 236.326 198.978 236.383 199.043C236.409 199.065 236.432 199.088 236.453 199.113C236.545 199.214 236.637 199.314 236.725 199.415C236.829 199.537 236.926 199.659 237.017 199.782C237.061 199.843 237.109 199.904 237.149 199.965C237.201 200.04 237.254 200.118 237.297 200.192C237.337 200.254 237.372 200.319 237.407 200.38C237.499 200.538 237.578 200.703 237.643 200.874C237.69 200.99 237.73 201.11 237.761 201.232C237.794 201.348 237.819 201.467 237.835 201.586V201.586Z" fill="black"/>
</g>
<defs>
<linearGradient id="paint0_linear_13_164" x1="29.5" y1="-14.5" x2="303.5" y2="243" gradientUnits="userSpaceOnUse">
<stop stop-color="#3F3D56"/>
<stop offset="1" stop-color="#4BB164"/>
</linearGradient>
<clipPath id="clip0_13_164">
<rect width="344" height="250" fill="white"/>
</clipPath>
</defs>
</svg>
