<svg width="538" height="549" viewBox="0 0 538 549" fill="none" xmlns="http://www.w3.org/2000/svg">
<path d="M537.241 285C537.241 430.803 417.03 549 268.741 549C120.453 549 0.241058 430.803 0.241058 285C0.241058 139.197 120.453 21 268.741 21C417.03 21 537.241 139.197 537.241 285Z" fill="url(#paint0_linear_114_209)"/>
<g clip-path="url(#clip0_114_209)">
<path opacity="0.4" d="M102.36 477.8L81 465.58L112.96 447.29L134.31 459.5L102.36 477.8Z" fill="#D6D8E5"/>
<path d="M102.8 453.17L85.11 442.96L102.8 432.75L120.48 442.96L102.8 453.17Z" fill="#D6D8E5"/>
<path d="M102.8 473.59L85.11 463.38V442.96L102.8 453.17V473.59Z" fill="#B1B6C4"/>
<path d="M120.49 463.38L102.8 473.59V453.17L120.49 442.96V463.38Z" fill="#C4C7D6"/>
<path d="M126.57 457C128.1 457.426 129.736 457.228 131.12 456.45C132.22 456.45 138.18 453.94 138.99 456.08C139.7 457.95 137.12 459.69 135.74 460.02C132.74 460.75 130.5 462.25 129.29 462.51C128.829 462.675 128.335 462.725 127.85 462.655C127.366 462.586 126.906 462.398 126.51 462.11C125.65 461.21 125.73 458.07 126.57 457Z" fill="#38226D"/>
<path d="M129.29 461.94C130.5 461.68 132.73 460.18 135.74 459.45C136.89 459.17 138.88 457.91 139.08 456.4C139.35 458.13 137.02 459.66 135.74 459.97C132.74 460.7 130.5 462.2 129.29 462.46C128.829 462.625 128.335 462.675 127.85 462.605C127.366 462.536 126.906 462.348 126.51 462.06C126.319 461.858 126.185 461.61 126.12 461.34C126.565 461.68 127.083 461.912 127.634 462.016C128.184 462.12 128.751 462.094 129.29 461.94V461.94Z" fill="#9C73FF"/>
<path d="M115.83 451.23C117.36 451.656 118.996 451.458 120.38 450.68C121.48 450.68 127.38 448.17 128.24 450.31C128.95 452.18 126.37 453.92 125 454.25C122 454.98 119.76 456.48 118.55 456.74C118.089 456.905 117.595 456.955 117.11 456.885C116.626 456.816 116.166 456.628 115.77 456.34C114.91 455.49 115 452.35 115.83 451.23Z" fill="#38226D"/>
<path d="M118.55 456.22C119.76 455.96 121.99 454.46 125 453.73C126.15 453.45 128.14 452.19 128.34 450.68C128.61 452.41 126.28 453.94 125 454.25C122 454.98 119.76 456.48 118.55 456.74C118.089 456.905 117.595 456.955 117.11 456.885C116.626 456.816 116.166 456.628 115.77 456.34C115.582 456.14 115.447 455.896 115.38 455.63C115.827 455.967 116.345 456.196 116.895 456.299C117.446 456.401 118.012 456.374 118.55 456.22V456.22Z" fill="#9C73FF"/>
<path d="M99.1 443.82C103.75 445.82 108.1 446.18 111.71 444.26L115.41 442.12C115.63 446.9 115.84 451.49 115.84 451.49C115.84 451.49 118.68 453.64 120.84 451.72C120.84 451.72 121.3 445.02 121.77 438.42L125.65 436.18C125.557 436.533 125.506 436.895 125.5 437.26C125.5 438.51 126.4 457.14 126.4 457.14C126.4 457.14 129.26 458.84 131.47 456.93C131.47 456.93 132.96 435.34 133.3 431.93C133.68 428.05 129.38 426.14 126.65 427.13L122.49 428.68L122.69 426.28C123.08 422.4 118.77 420.49 116.05 421.48C113.57 422.39 96.81 428.67 96.81 428.67C96.9143 430.283 97.1113 431.889 97.4 433.48L90.78 432.92C90.43 439.11 94.46 441.78 99.1 443.82ZM110.66 433.09L115.09 430.54C115.016 430.852 114.969 431.17 114.95 431.49L110.66 433.09Z" fill="#8C50FF"/>
<path d="M87.2 414C87.2 414 87.74 422.23 88.82 423.42C89.9 424.61 93.56 425.42 93.56 425.42L96.37 430C96.37 430 93.8 415.32 93.24 415C92.68 414.68 87.2 414 87.2 414Z" fill="#FFCEA9"/>
<path d="M92.61 404.85C91.9286 404.532 91.1545 404.473 90.4328 404.685C89.7112 404.896 89.0915 405.364 88.69 406C87.69 407.71 86.58 413.6 86.48 414.6C86.8956 415.161 87.4462 415.609 88.0808 415.901C88.7153 416.193 89.4133 416.32 90.11 416.27L92.61 404.85Z" fill="#EDEDED"/>
<path d="M93.6 405C95.02 405.07 96.08 405.43 96.26 405C96.4125 404.267 96.5193 403.526 96.58 402.78C96.42 402.36 96.28 401.92 96.28 401.92C94.49 400.82 93.93 398.92 93.69 396.64C93.29 392.79 95.37 389.43 99.21 389.03C102.83 388.65 105.49 391.19 106.21 394.68C106.59 396.4 107.35 399.68 106.32 402.49C105.75 404.07 105.01 405.33 104.32 405.57C103.604 405.555 102.889 405.495 102.18 405.39V405.39C102.18 405.39 101.99 406.46 101.86 407.14C101.73 407.82 101.77 408.19 103.14 409.03C104.51 409.87 101.08 411.6 98.84 411.43C96.6 411.26 94.08 409.91 93.39 408.43C92.56 406.81 92.62 404.91 93.6 405Z" fill="#FFCEA9"/>
<path d="M129.66 430.15C129.659 430.353 129.605 430.552 129.503 430.727C129.402 430.903 129.256 431.049 129.08 431.15L118.23 437.41C118.054 437.513 117.854 437.567 117.65 437.567C117.446 437.567 117.246 437.513 117.07 437.41L101.87 428.63C101.693 428.53 101.546 428.385 101.444 428.209C101.342 428.033 101.289 427.833 101.29 427.63V427.55L129.66 430.15Z" fill="#E5E5E5"/>
<path d="M129.08 431.15L118.23 437.41C118.055 437.516 117.854 437.572 117.65 437.57V430.15H129.65C129.65 430.352 129.598 430.55 129.498 430.726C129.398 430.901 129.254 431.047 129.08 431.15V431.15Z" fill="#E5E5E5"/>
<path d="M118.06 436.84C117.938 436.913 117.798 436.952 117.655 436.952C117.512 436.952 117.372 436.913 117.25 436.84L101.44 427.72C101.24 427.6 101.24 427.41 101.44 427.3L113.08 420.57L129.66 430.15L118.06 436.84Z" fill="#F4F4F4"/>
<path d="M107.93 430.15L108.01 430.19L113.08 433.12L115.86 431.51L115.94 431.47L110.79 428.5L107.93 430.15Z" fill="#BFBFBF"/>
<path d="M108.01 430.19L113.08 433.12L115.86 431.51L110.79 428.59L108.01 430.19Z" fill="#E5E5E5"/>
<path d="M125.36 430.62L126.09 431.04C126.125 431.059 126.165 431.069 126.205 431.069C126.245 431.069 126.285 431.059 126.32 431.04L127.02 430.64C127.09 430.64 127.1 430.54 127.02 430.51L126.29 430.08C126.254 430.063 126.215 430.054 126.175 430.054C126.135 430.054 126.096 430.063 126.06 430.08L125.36 430.49C125.31 430.53 125.3 430.59 125.36 430.62Z" fill="#3A2C6D"/>
<path d="M124.33 430L125.06 430.42C125.095 430.439 125.135 430.449 125.175 430.449C125.215 430.449 125.255 430.439 125.29 430.42L125.99 430.02C126.06 430.02 126.06 429.92 125.99 429.89L125.26 429.47C125.225 429.451 125.185 429.441 125.145 429.441C125.105 429.441 125.065 429.451 125.03 429.47L124.33 429.87C124.28 429.93 124.27 430 124.33 430Z" fill="#3A2C6D"/>
<path d="M123.29 429.43L124.02 429.85C124.058 429.867 124.099 429.876 124.14 429.876C124.181 429.876 124.222 429.867 124.26 429.85L124.95 429.45C125.02 429.45 125.03 429.35 124.95 429.31L124.22 428.89C124.185 428.871 124.145 428.861 124.105 428.861C124.065 428.861 124.025 428.871 123.99 428.89L123.29 429.29C123.24 429.33 123.23 429.39 123.29 429.43Z" fill="#3A2C6D"/>
<path d="M122.26 428.83L122.99 429.25C123.026 429.267 123.065 429.276 123.105 429.276C123.145 429.276 123.184 429.267 123.22 429.25L123.92 428.85C123.99 428.85 124 428.75 123.92 428.71L123.19 428.29C123.152 428.273 123.111 428.264 123.07 428.264C123.029 428.264 122.988 428.273 122.95 428.29L122.26 428.69C122.21 428.73 122.2 428.79 122.26 428.83Z" fill="#3A2C6D"/>
<path d="M121.22 428.23L121.96 428.65C121.995 428.669 122.035 428.679 122.075 428.679C122.115 428.679 122.155 428.669 122.19 428.65L122.88 428.25C122.95 428.25 122.96 428.15 122.88 428.12L122.15 427.69C122.114 427.673 122.075 427.664 122.035 427.664C121.995 427.664 121.956 427.673 121.92 427.69L121.22 428.1C121.17 428.14 121.16 428.2 121.22 428.23Z" fill="#3A2C6D"/>
<path d="M120.19 427.63L120.92 428.06C120.956 428.077 120.995 428.086 121.035 428.086C121.075 428.086 121.114 428.077 121.15 428.06L121.85 427.65C121.92 427.65 121.93 427.55 121.85 427.52L121.12 427.1C121.083 427.081 121.042 427.071 121 427.071C120.958 427.071 120.917 427.081 120.88 427.1L120.19 427.5C120.14 427.54 120.13 427.6 120.19 427.63Z" fill="#3A2C6D"/>
<path d="M119.16 427L119.89 427.42C119.926 427.437 119.965 427.446 120.005 427.446C120.045 427.446 120.084 427.437 120.12 427.42L120.82 427.02C120.89 427.02 120.89 426.92 120.82 426.88L120.09 426.46C120.054 426.443 120.015 426.434 119.975 426.434C119.935 426.434 119.896 426.443 119.86 426.46L119.16 426.86C119.1 426.94 119.1 427 119.16 427Z" fill="#3A2C6D"/>
<path d="M118.12 426.44L118.85 426.86C118.885 426.879 118.925 426.889 118.965 426.889C119.005 426.889 119.045 426.879 119.08 426.86L119.78 426.46C119.85 426.46 119.86 426.36 119.78 426.33L119.05 425.9C119.014 425.883 118.975 425.874 118.935 425.874C118.895 425.874 118.856 425.883 118.82 425.9L118.12 426.31C118.07 426.35 118.06 426.41 118.12 426.44Z" fill="#3A2C6D"/>
<path d="M117.09 425.84L117.82 426.26C117.855 426.279 117.895 426.289 117.935 426.289C117.975 426.289 118.015 426.279 118.05 426.26L118.75 425.86C118.82 425.86 118.82 425.76 118.75 425.73L118 425.3C117.965 425.281 117.925 425.271 117.885 425.271C117.845 425.271 117.805 425.281 117.77 425.3L117.07 425.7C117 425.75 117 425.81 117.09 425.84Z" fill="#3A2C6D"/>
<path d="M116.05 425.25L116.78 425.67C116.818 425.687 116.859 425.696 116.9 425.696C116.941 425.696 116.982 425.687 117.02 425.67L117.71 425.27C117.78 425.27 117.79 425.17 117.71 425.13L117 424.7C116.965 424.681 116.925 424.671 116.885 424.671C116.845 424.671 116.805 424.681 116.77 424.7L116.07 425.1C116 425.15 116 425.21 116.05 425.25Z" fill="#3A2C6D"/>
<path d="M115 424.65L115.73 425.07C115.766 425.087 115.805 425.096 115.845 425.096C115.885 425.096 115.924 425.087 115.96 425.07L116.66 424.67C116.73 424.67 116.74 424.57 116.66 424.53L116 424.1C115.962 424.083 115.921 424.074 115.88 424.074C115.839 424.074 115.798 424.083 115.76 424.1L115.07 424.5C115 424.55 115 424.61 115 424.65Z" fill="#3A2C6D"/>
<path d="M114 424.05L114.74 424.47C114.775 424.489 114.815 424.499 114.855 424.499C114.895 424.499 114.935 424.489 114.97 424.47L115.67 424.07C115.73 424.07 115.74 423.97 115.67 423.94L114.94 423.51C114.904 423.493 114.865 423.484 114.825 423.484C114.785 423.484 114.746 423.493 114.71 423.51L114.01 423.92C113.93 424 113.93 424 114 424.05Z" fill="#3A2C6D"/>
<path d="M113 423.45L113.73 423.88C113.766 423.897 113.805 423.906 113.845 423.906C113.885 423.906 113.924 423.897 113.96 423.88L114.66 423.47C114.73 423.47 114.74 423.37 114.66 423.34L113.93 422.92C113.893 422.901 113.852 422.891 113.81 422.891C113.768 422.891 113.727 422.901 113.69 422.92L113 423.32C112.9 423.36 112.89 423.42 113 423.45Z" fill="#3A2C6D"/>
<path d="M111.42 422.57L112.65 423.28C112.686 423.297 112.725 423.306 112.765 423.306C112.805 423.306 112.844 423.297 112.88 423.28L113.58 422.88C113.65 422.88 113.65 422.78 113.58 422.74L112.36 422C112.324 421.983 112.285 421.974 112.245 421.974C112.205 421.974 112.166 421.983 112.13 422L111.43 422.41C111.419 422.409 111.409 422.411 111.399 422.414C111.389 422.418 111.38 422.423 111.372 422.43C111.364 422.437 111.358 422.445 111.353 422.455C111.348 422.464 111.346 422.474 111.345 422.485C111.344 422.495 111.346 422.506 111.349 422.516C111.353 422.526 111.358 422.535 111.365 422.543C111.372 422.551 111.38 422.557 111.39 422.562C111.399 422.567 111.409 422.569 111.42 422.57V422.57Z" fill="#3A2C6D"/>
<path d="M122.82 430.31L123.56 430.73C123.595 430.749 123.635 430.759 123.675 430.759C123.715 430.759 123.755 430.749 123.79 430.73L124.49 430.33C124.55 430.33 124.56 430.23 124.49 430.2L123.76 429.78C123.725 429.761 123.685 429.751 123.645 429.751C123.605 429.751 123.565 429.761 123.53 429.78L122.83 430.18C122.77 430.22 122.77 430.28 122.82 430.31Z" fill="#3A2C6D"/>
<path d="M121.79 429.71L122.52 430.14C122.556 430.157 122.595 430.166 122.635 430.166C122.675 430.166 122.714 430.157 122.75 430.14L123.45 429.73C123.52 429.73 123.53 429.63 123.45 429.6L122.72 429.18C122.683 429.161 122.642 429.151 122.6 429.151C122.558 429.151 122.517 429.161 122.48 429.18L121.79 429.58C121.74 429.62 121.73 429.68 121.79 429.71Z" fill="#3A2C6D"/>
<path d="M120.75 429.12L121.48 429.54C121.518 429.557 121.559 429.566 121.6 429.566C121.641 429.566 121.682 429.557 121.72 429.54L122.41 429.14C122.48 429.14 122.49 429.04 122.41 429L121.68 428.58C121.644 428.563 121.605 428.554 121.565 428.554C121.525 428.554 121.486 428.563 121.45 428.58L120.75 428.98C120.7 429 120.69 429.08 120.75 429.12Z" fill="#3A2C6D"/>
<path d="M119.72 428.52L120.45 428.94C120.486 428.957 120.525 428.966 120.565 428.966C120.605 428.966 120.644 428.957 120.68 428.94L121.38 428.54C121.45 428.54 121.45 428.44 121.38 428.4L120.65 427.98C120.614 427.963 120.575 427.954 120.535 427.954C120.495 427.954 120.456 427.963 120.42 427.98L119.72 428.38C119.66 428.42 119.66 428.48 119.72 428.52Z" fill="#3A2C6D"/>
<path d="M118.69 427.92L119.42 428.35C119.456 428.367 119.495 428.376 119.535 428.376C119.575 428.376 119.614 428.367 119.65 428.35L120.35 427.94C120.42 427.94 120.43 427.84 120.35 427.81L119.62 427.39C119.583 427.371 119.542 427.361 119.5 427.361C119.458 427.361 119.417 427.371 119.38 427.39L118.69 427.79C118.64 427.83 118.63 427.89 118.69 427.92Z" fill="#3A2C6D"/>
<path d="M117.65 427.33L118.38 427.75C118.418 427.767 118.459 427.776 118.5 427.776C118.541 427.776 118.582 427.767 118.62 427.75L119.31 427.35C119.38 427.35 119.39 427.25 119.31 427.21L118.58 426.79C118.544 426.773 118.505 426.764 118.465 426.764C118.425 426.764 118.386 426.773 118.35 426.79L117.65 427.19C117.6 427.23 117.59 427.29 117.65 427.33Z" fill="#3A2C6D"/>
<path d="M116.62 426.73L117.35 427.15C117.386 427.167 117.425 427.176 117.465 427.176C117.505 427.176 117.544 427.167 117.58 427.15L118.28 426.75C118.35 426.75 118.35 426.65 118.28 426.61L117.55 426.19C117.514 426.173 117.475 426.164 117.435 426.164C117.395 426.164 117.356 426.173 117.32 426.19L116.62 426.59C116.56 426.63 116.56 426.69 116.62 426.73Z" fill="#3A2C6D"/>
<path d="M115.58 426.13L116.31 426.55C116.345 426.569 116.385 426.579 116.425 426.579C116.465 426.579 116.505 426.569 116.54 426.55L117.24 426.15C117.31 426.15 117.32 426.05 117.24 426.02L116.51 425.59C116.472 425.573 116.431 425.564 116.39 425.564C116.349 425.564 116.308 425.573 116.27 425.59L115.58 426C115.53 426 115.52 426.1 115.58 426.13Z" fill="#3A2C6D"/>
<path d="M114.54 425.53L115.28 425.95C115.315 425.969 115.355 425.979 115.395 425.979C115.435 425.979 115.475 425.969 115.51 425.95L116.21 425.55C116.27 425.55 116.28 425.45 116.21 425.42L115.48 425C115.445 424.981 115.405 424.971 115.365 424.971C115.325 424.971 115.285 424.981 115.25 425L114.55 425.4C114.49 425.44 114.49 425.5 114.54 425.53Z" fill="#3A2C6D"/>
<path d="M113.51 424.93L114.24 425.36C114.276 425.377 114.315 425.386 114.355 425.386C114.395 425.386 114.434 425.377 114.47 425.36L115.17 424.95C115.24 424.95 115.25 424.85 115.17 424.82L114.44 424.4C114.403 424.381 114.362 424.371 114.32 424.371C114.278 424.371 114.237 424.381 114.2 424.4L113.51 424.8C113.46 424.84 113.45 424.9 113.51 424.93Z" fill="#3A2C6D"/>
<path d="M112.47 424.34L113.2 424.76C113.238 424.777 113.279 424.786 113.32 424.786C113.361 424.786 113.402 424.777 113.44 424.76L114.13 424.36C114.2 424.36 114.21 424.26 114.13 424.22L113.4 423.8C113.364 423.783 113.325 423.774 113.285 423.774C113.245 423.774 113.206 423.783 113.17 423.8L112.47 424.2C112.42 424.24 112.41 424.3 112.47 424.34Z" fill="#3A2C6D"/>
<path d="M111.44 423.74L112.17 424.16C112.206 424.177 112.245 424.186 112.285 424.186C112.325 424.186 112.364 424.177 112.4 424.16L113.1 423.76C113.17 423.76 113.17 423.66 113.1 423.62L112.37 423.2C112.334 423.183 112.295 423.174 112.255 423.174C112.215 423.174 112.176 423.183 112.14 423.2L111.44 423.6C111.38 423.64 111.38 423.7 111.44 423.74Z" fill="#3A2C6D"/>
<path d="M123.86 430.91L125.09 431.62C125.126 431.637 125.165 431.646 125.205 431.646C125.245 431.646 125.284 431.637 125.32 431.62L126.02 431.22C126.09 431.22 126.1 431.12 126.02 431.08L124.79 430.37C124.752 430.353 124.711 430.344 124.67 430.344C124.629 430.344 124.588 430.353 124.55 430.37L123.86 430.78C123.81 430.82 123.8 430.88 123.86 430.91Z" fill="#3A2C6D"/>
<path d="M111.35 422.6L112.08 423.02C112.14 423.02 112.14 423.11 112.08 423.15L111.34 423.57C111.308 423.589 111.272 423.6 111.235 423.6C111.198 423.6 111.162 423.589 111.13 423.57H111.07C111.039 423.555 111.005 423.547 110.97 423.547C110.935 423.547 110.901 423.555 110.87 423.57L110.09 424.02C110.055 424.035 110.018 424.042 109.98 424.042C109.942 424.042 109.905 424.035 109.87 424.02L109.41 423.75C109.35 423.75 109.35 423.66 109.41 423.62L110.14 423.2L110.29 423.12L110.4 423.05L110.51 422.99L111.13 422.63C111.161 422.606 111.197 422.59 111.236 422.585C111.275 422.58 111.314 422.585 111.35 422.6V422.6Z" fill="#3A2C6D"/>
<path d="M121.35 432.93L122.08 433.35C122.115 433.369 122.155 433.379 122.195 433.379C122.235 433.379 122.275 433.369 122.31 433.35L123.01 432.95C123.08 432.95 123.08 432.85 123.01 432.82L122.28 432.4C122.245 432.381 122.205 432.371 122.165 432.371C122.125 432.371 122.085 432.381 122.05 432.4L121.35 432.8C121.3 432.84 121.29 432.9 121.35 432.93Z" fill="#3A2C6D"/>
<path d="M120.32 432.34L121.05 432.76C121.086 432.777 121.125 432.786 121.165 432.786C121.205 432.786 121.244 432.777 121.28 432.76L121.98 432.36C122.05 432.36 122.05 432.26 121.98 432.22L121.25 431.8C121.214 431.783 121.175 431.774 121.135 431.774C121.095 431.774 121.056 431.783 121.02 431.8L120.32 432.2C120.26 432.24 120.26 432.3 120.32 432.34Z" fill="#3A2C6D"/>
<path d="M119.28 431.74L120.02 432.16C120.055 432.179 120.095 432.189 120.135 432.189C120.175 432.189 120.215 432.179 120.25 432.16L120.95 431.76C121.01 431.76 121.02 431.66 120.95 431.63L120.22 431.21C120.185 431.191 120.145 431.181 120.105 431.181C120.065 431.181 120.025 431.191 119.99 431.21L119.29 431.62C119.23 431.65 119.23 431.71 119.28 431.74Z" fill="#3A2C6D"/>
<path d="M110.5 426.67L111.23 427.09C111.267 427.109 111.308 427.119 111.35 427.119C111.392 427.119 111.433 427.109 111.47 427.09L112.16 426.69C112.23 426.69 112.24 426.59 112.16 426.56L111.43 426.13C111.394 426.113 111.355 426.104 111.315 426.104C111.275 426.104 111.236 426.113 111.2 426.13L110.5 426.54C110.45 426.58 110.44 426.64 110.5 426.67Z" fill="#3A2C6D"/>
<path d="M109.47 426.08L110.2 426.5C110.236 426.517 110.275 426.526 110.315 426.526C110.355 426.526 110.394 426.517 110.43 426.5L111.13 426.09C111.2 426.09 111.21 426 111.13 425.96L110.4 425.54C110.363 425.521 110.322 425.511 110.28 425.511C110.238 425.511 110.197 425.521 110.16 425.54L109.47 425.94C109.42 426 109.41 426 109.47 426.08Z" fill="#3A2C6D"/>
<path d="M108.44 425.48L109.17 425.9C109.205 425.919 109.245 425.929 109.285 425.929C109.325 425.929 109.365 425.919 109.4 425.9L110.1 425.5C110.17 425.5 110.18 425.4 110.1 425.37L109.37 424.94C109.332 424.923 109.291 424.914 109.25 424.914C109.209 424.914 109.168 424.923 109.13 424.94L108.44 425.35C108.39 425.39 108.38 425.45 108.44 425.48Z" fill="#3A2C6D"/>
<path d="M107.41 424.88L108.14 425.31C108.176 425.327 108.215 425.336 108.255 425.336C108.295 425.336 108.334 425.327 108.37 425.31L109.07 424.9C109.14 424.9 109.14 424.8 109.07 424.77L108.33 424.35C108.295 424.331 108.255 424.321 108.215 424.321C108.175 424.321 108.135 424.331 108.1 424.35L107.4 424.75C107.36 424.79 107.35 424.85 107.41 424.88Z" fill="#3A2C6D"/>
<path d="M118 431L119 431.58C119.038 431.597 119.079 431.606 119.12 431.606C119.161 431.606 119.202 431.597 119.24 431.58L119.93 431.18C120 431.18 120.01 431.08 119.93 431.04L118.93 430.47C118.895 430.451 118.855 430.441 118.815 430.441C118.775 430.441 118.735 430.451 118.7 430.47L118 430.87C117.94 430.9 117.93 431 118 431Z" fill="#3A2C6D"/>
<path d="M111.53 427.27L112.53 427.84C112.565 427.859 112.605 427.869 112.645 427.869C112.685 427.869 112.725 427.859 112.76 427.84L113.46 427.44C113.53 427.44 113.54 427.34 113.46 427.3L112.46 426.73C112.424 426.713 112.385 426.704 112.345 426.704C112.305 426.704 112.266 426.713 112.23 426.73L111.53 427.13C111.48 427.17 111.47 427.23 111.53 427.27Z" fill="#3A2C6D"/>
<path d="M112.83 428L117.69 430.81C117.726 430.827 117.765 430.836 117.805 430.836C117.845 430.836 117.884 430.827 117.92 430.81L118.62 430.41C118.69 430.41 118.69 430.31 118.62 430.27L113.77 427.47C113.733 427.451 113.692 427.441 113.65 427.441C113.608 427.441 113.567 427.451 113.53 427.47L112.84 427.87C112.78 427.92 112.77 428 112.83 428Z" fill="#3A2C6D"/>
<path d="M121.54 430.73L122.27 431.15C122.305 431.169 122.345 431.179 122.385 431.179C122.425 431.179 122.465 431.169 122.5 431.15L123.2 430.75C123.27 430.75 123.28 430.65 123.2 430.61L122.47 430.19C122.432 430.173 122.391 430.164 122.35 430.164C122.309 430.164 122.268 430.173 122.23 430.19L121.54 430.59C121.49 430.63 121.48 430.69 121.54 430.73Z" fill="#3A2C6D"/>
<path d="M120.51 430.13L121.24 430.55C121.275 430.569 121.315 430.579 121.355 430.579C121.395 430.579 121.435 430.569 121.47 430.55L122.17 430.15C122.24 430.15 122.24 430.05 122.17 430.02L121.44 429.6C121.405 429.581 121.365 429.571 121.325 429.571C121.285 429.571 121.245 429.581 121.21 429.6L120.51 430C120.46 430 120.45 430.1 120.51 430.13Z" fill="#3A2C6D"/>
<path d="M119.47 429.54L120.21 429.96C120.246 429.977 120.285 429.986 120.325 429.986C120.365 429.986 120.404 429.977 120.44 429.96L121.14 429.56C121.2 429.56 121.21 429.46 121.14 429.42L120.41 429C120.374 428.983 120.335 428.974 120.295 428.974C120.255 428.974 120.216 428.983 120.18 429L119.48 429.4C119.42 429.44 119.42 429.5 119.47 429.54Z" fill="#3A2C6D"/>
<path d="M118.44 428.94L119.17 429.36C119.205 429.379 119.245 429.389 119.285 429.389C119.325 429.389 119.365 429.379 119.4 429.36L120.1 428.96C120.17 428.96 120.18 428.86 120.1 428.82L119.37 428.4C119.334 428.383 119.295 428.374 119.255 428.374C119.215 428.374 119.176 428.383 119.14 428.4L118.44 428.81C118.39 428.85 118.38 428.91 118.44 428.94Z" fill="#3A2C6D"/>
<path d="M117.41 428.34L118.14 428.76C118.175 428.779 118.215 428.789 118.255 428.789C118.295 428.789 118.335 428.779 118.37 428.76L119.07 428.35C119.14 428.35 119.15 428.25 119.07 428.22L118.34 427.8C118.303 427.781 118.262 427.771 118.22 427.771C118.178 427.771 118.137 427.781 118.1 427.8L117.41 428.2C117.36 428.25 117.35 428.31 117.41 428.34Z" fill="#3A2C6D"/>
<path d="M116.38 427.75L117.11 428.17C117.146 428.187 117.185 428.196 117.225 428.196C117.265 428.196 117.304 428.187 117.34 428.17L118.04 427.77C118.1 427.77 118.11 427.67 118.04 427.63L117.31 427.21C117.274 427.193 117.235 427.184 117.195 427.184C117.155 427.184 117.116 427.193 117.08 427.21L116.38 427.61C116.32 427.65 116.32 427.71 116.38 427.75Z" fill="#3A2C6D"/>
<path d="M115.34 427.15L116.07 427.57C116.107 427.589 116.148 427.599 116.19 427.599C116.232 427.599 116.273 427.589 116.31 427.57L117 427.17C117.07 427.17 117.08 427.07 117 427.04L116.27 426.61C116.234 426.593 116.195 426.584 116.155 426.584C116.115 426.584 116.076 426.593 116.04 426.61L115.34 427.02C115.29 427.06 115.28 427.12 115.34 427.15Z" fill="#3A2C6D"/>
<path d="M114.31 426.55L115 427C115.036 427.017 115.075 427.026 115.115 427.026C115.155 427.026 115.194 427.017 115.23 427L115.93 426.59C116 426.59 116.01 426.49 115.93 426.46L115.2 426.04C115.163 426.021 115.122 426.011 115.08 426.011C115.038 426.011 114.997 426.021 114.96 426.04L114.27 426.44C114.26 426.46 114.25 426.52 114.31 426.55Z" fill="#3A2C6D"/>
<path d="M113.28 426L114.01 426.42C114.046 426.437 114.085 426.446 114.125 426.446C114.165 426.446 114.204 426.437 114.24 426.42L114.94 426.02C115.01 426.02 115.01 425.92 114.94 425.88L114.21 425.46C114.174 425.443 114.135 425.434 114.095 425.434C114.055 425.434 114.016 425.443 113.98 425.46L113.28 425.86C113.22 425.86 113.22 425.92 113.28 426Z" fill="#3A2C6D"/>
<path d="M112.24 425.36L112.97 425.78C113.007 425.799 113.048 425.809 113.09 425.809C113.132 425.809 113.173 425.799 113.21 425.78L113.9 425.38C113.97 425.38 113.98 425.28 113.9 425.25L113.17 424.82C113.134 424.803 113.095 424.794 113.055 424.794C113.015 424.794 112.976 424.803 112.94 424.82L112.24 425.23C112.19 425.27 112.18 425.33 112.24 425.36Z" fill="#3A2C6D"/>
<path d="M111.21 424.76L111.94 425.19C111.976 425.207 112.015 425.216 112.055 425.216C112.095 425.216 112.134 425.207 112.17 425.19L112.87 424.78C112.94 424.78 112.95 424.68 112.87 424.65L112.14 424.23C112.103 424.211 112.062 424.201 112.02 424.201C111.978 424.201 111.937 424.211 111.9 424.23L111.21 424.63C111.16 424.67 111.15 424.73 111.21 424.76Z" fill="#3A2C6D"/>
<path d="M110.18 424.17L110.91 424.59C110.946 424.607 110.985 424.616 111.025 424.616C111.065 424.616 111.104 424.607 111.14 424.59L111.84 424.19C111.91 424.19 111.91 424.09 111.84 424.05L111.11 423.63C111.074 423.613 111.035 423.604 110.995 423.604C110.955 423.604 110.916 423.613 110.88 423.63L110.18 424.03C110.12 424.07 110.12 424.13 110.18 424.17Z" fill="#3A2C6D"/>
<path d="M122.57 431.33L124.09 432.2C124.126 432.217 124.165 432.226 124.205 432.226C124.245 432.226 124.284 432.217 124.32 432.2L125.01 431.8C125.08 431.8 125.09 431.7 125.01 431.66L123.5 430.79C123.465 430.771 123.425 430.761 123.385 430.761C123.345 430.761 123.305 430.771 123.27 430.79L122.57 431.19C122.52 431.23 122.51 431.29 122.57 431.33Z" fill="#3A2C6D"/>
<path d="M121.05 431.6L121.78 432.03C121.816 432.047 121.855 432.056 121.895 432.056C121.935 432.056 121.974 432.047 122.01 432.03L122.71 431.62C122.78 431.62 122.79 431.52 122.71 431.49L121.98 431.07C121.945 431.051 121.905 431.041 121.865 431.041C121.825 431.041 121.785 431.051 121.75 431.07L121.05 431.47C121 431.51 121 431.57 121.05 431.6Z" fill="#3A2C6D"/>
<path d="M120 431L120.73 431.42C120.766 431.437 120.805 431.446 120.845 431.446C120.885 431.446 120.924 431.437 120.96 431.42L121.66 431.02C121.73 431.02 121.74 430.92 121.66 430.88L120.92 430.46C120.884 430.443 120.845 430.434 120.805 430.434C120.765 430.434 120.726 430.443 120.69 430.46L120 430.86C120 430.91 120 431 120 431Z" fill="#3A2C6D"/>
<path d="M119 430.41L119.73 430.83C119.765 430.849 119.805 430.859 119.845 430.859C119.885 430.859 119.925 430.849 119.96 430.83L120.66 430.43C120.72 430.43 120.73 430.33 120.66 430.3L119.93 429.87C119.894 429.853 119.855 429.844 119.815 429.844C119.775 429.844 119.736 429.853 119.7 429.87L119 430.28C118.93 430.32 118.93 430.38 119 430.41Z" fill="#3A2C6D"/>
<path d="M118 429.81L118.73 430.24C118.768 430.257 118.809 430.266 118.85 430.266C118.891 430.266 118.932 430.257 118.97 430.24L119.66 429.83C119.73 429.83 119.74 429.73 119.66 429.7L118.93 429.28C118.895 429.261 118.855 429.251 118.815 429.251C118.775 429.251 118.735 429.261 118.7 429.28L118 429.68C117.9 429.72 117.89 429.78 118 429.81Z" fill="#3A2C6D"/>
<path d="M116.92 429.22L117.65 429.64C117.686 429.657 117.725 429.666 117.765 429.666C117.805 429.666 117.844 429.657 117.88 429.64L118.58 429.24C118.65 429.24 118.66 429.14 118.58 429.1L117.85 428.68C117.812 428.663 117.771 428.654 117.73 428.654C117.689 428.654 117.648 428.663 117.61 428.68L116.92 429.08C116.87 429.12 116.86 429.18 116.92 429.22Z" fill="#3A2C6D"/>
<path d="M115.89 428.62L116.62 429.04C116.655 429.059 116.695 429.069 116.735 429.069C116.775 429.069 116.815 429.059 116.85 429.04L117.55 428.64C117.62 428.64 117.62 428.54 117.55 428.51L116.82 428.09C116.785 428.071 116.745 428.061 116.705 428.061C116.665 428.061 116.625 428.071 116.59 428.09L115.89 428.49C115.83 428.53 115.83 428.59 115.89 428.62Z" fill="#3A2C6D"/>
<path d="M114.85 428L115.58 428.42C115.618 428.437 115.659 428.446 115.7 428.446C115.741 428.446 115.782 428.437 115.82 428.42L116.51 428.02C116.58 428.02 116.59 427.92 116.51 427.88L115.78 427.46C115.745 427.441 115.705 427.431 115.665 427.431C115.625 427.431 115.585 427.441 115.55 427.46L114.85 427.86C114.8 427.93 114.79 428 114.85 428Z" fill="#3A2C6D"/>
<path d="M113.82 427.43L114.55 427.85C114.585 427.869 114.625 427.879 114.665 427.879C114.705 427.879 114.745 427.869 114.78 427.85L115.48 427.45C115.55 427.45 115.56 427.35 115.48 427.31L114.75 426.89C114.712 426.873 114.671 426.864 114.63 426.864C114.589 426.864 114.548 426.873 114.51 426.89L113.82 427.3C113.77 427.33 113.76 427.39 113.82 427.43Z" fill="#3A2C6D"/>
<path d="M112.79 426.83L113.52 427.25C113.556 427.268 113.595 427.277 113.635 427.277C113.675 427.277 113.714 427.268 113.75 427.25L114.45 426.84C114.52 426.84 114.52 426.74 114.45 426.71L113.71 426.29C113.675 426.271 113.635 426.261 113.595 426.261C113.555 426.261 113.515 426.271 113.48 426.29L112.78 426.69C112.74 426.74 112.73 426.8 112.79 426.83Z" fill="#3A2C6D"/>
<path d="M111.76 426.24L112.49 426.66C112.526 426.677 112.565 426.686 112.605 426.686C112.645 426.686 112.684 426.677 112.72 426.66L113.42 426.26C113.48 426.26 113.49 426.16 113.42 426.12L112.69 425.7C112.654 425.683 112.615 425.674 112.575 425.674C112.535 425.674 112.496 425.683 112.46 425.7L111.76 426.1C111.7 426.14 111.7 426.2 111.76 426.24Z" fill="#3A2C6D"/>
<path d="M110.72 425.64L111.45 426.06C111.487 426.079 111.528 426.089 111.57 426.089C111.612 426.089 111.653 426.079 111.69 426.06L112.38 425.66C112.45 425.66 112.46 425.56 112.38 425.53L111.65 425.1C111.614 425.083 111.575 425.074 111.535 425.074C111.495 425.074 111.456 425.083 111.42 425.1L110.72 425.51C110.67 425.55 110.66 425.61 110.72 425.64Z" fill="#3A2C6D"/>
<path d="M108.41 424.31L110.41 425.47C110.446 425.487 110.485 425.496 110.525 425.496C110.565 425.496 110.604 425.487 110.64 425.47L111.34 425.06C111.41 425.06 111.42 424.96 111.34 424.93L109.34 423.77C109.303 423.751 109.262 423.741 109.22 423.741C109.178 423.741 109.137 423.751 109.1 423.77L108.41 424.17C108.36 424.21 108.35 424.27 108.41 424.31Z" fill="#3A2C6D"/>
<path d="M122.08 432.2L123.08 432.78C123.116 432.797 123.155 432.806 123.195 432.806C123.235 432.806 123.274 432.797 123.31 432.78L124.01 432.37C124.08 432.37 124.09 432.27 124.01 432.24L123.01 431.66C122.974 431.643 122.935 431.634 122.895 431.634C122.855 431.634 122.816 431.643 122.78 431.66L122.08 432.07C122 432.11 122 432.17 122.08 432.2Z" fill="#3A2C6D"/>
<path d="M129.66 430.15L113.08 420.57V407.57L113.21 407.27L113.34 407.21C113.514 407.107 113.713 407.053 113.915 407.053C114.117 407.053 114.316 407.107 114.49 407.21L129.66 415.96C129.833 416.063 129.977 416.21 130.076 416.385C130.176 416.56 130.229 416.758 130.23 416.96V429.2C130.12 429.79 130 429.94 129.66 430.15Z" fill="#E5E5E5"/>
<path d="M128.14 417.51L113.08 408V407.57L113.21 407.27L113.34 407.21C113.514 407.107 113.713 407.053 113.915 407.053C114.117 407.053 114.316 407.107 114.49 407.21L129.66 415.96C129.847 416.066 129.997 416.227 130.09 416.42L128.14 417.51Z" fill="#E5E5E5"/>
<path d="M113.46 407.24L129.38 416.43C129.464 416.479 129.533 416.55 129.582 416.634C129.631 416.718 129.658 416.813 129.66 416.91V430.15L113.08 420.57V407.46C113.079 407.415 113.09 407.371 113.112 407.331C113.134 407.292 113.166 407.26 113.205 407.237C113.244 407.215 113.288 407.203 113.333 407.203C113.378 407.204 113.422 407.217 113.46 407.24V407.24Z" fill="#DCEEFF"/>
<path d="M113.46 407.24L129.38 416.43C129.464 416.479 129.533 416.55 129.582 416.634C129.631 416.718 129.658 416.813 129.66 416.91V430.15L113.08 420.57V407.46C113.079 407.415 113.09 407.371 113.112 407.331C113.134 407.292 113.166 407.26 113.205 407.237C113.244 407.215 113.288 407.203 113.333 407.203C113.378 407.204 113.422 407.217 113.46 407.24V407.24Z" fill="#F4F4F4"/>
<path d="M129.66 430.15V429.67L113.08 420.1V420.57L129.66 430.15Z" fill="#DBDBDB"/>
<path d="M113.51 419.88V407.93L113.71 408.04V419.78L113.51 419.88Z" fill="#1E3779"/>
<path d="M113.71 408.04V419.78L129.13 428.65V416.94L113.71 408.04Z" fill="#3A2C6D"/>
<path d="M113.51 419.88L129.13 428.89V428.65L113.71 419.78L113.51 419.88Z" fill="#031F60"/>
<path d="M95.66 405.17C95.26 406.17 96.27 407.35 98.94 408.17C101.61 408.99 101.85 407.93 101.85 407.93C103.631 408.728 105.367 409.623 107.05 410.61C108.65 411.73 109.36 414.98 109.58 420.46C109.83 426.8 109.85 436.2 109.64 437.83C109.64 437.83 106.64 440.83 102.81 440.5C98.98 440.17 92.51 436.79 90.95 434.17C90.95 428.61 91.64 427.7 90.74 424.5C88.68 417.17 87.59 414.17 88.6 409.29C89.42 405.29 90.6 404.78 92.17 404.82C93.3387 404.875 94.5036 404.992 95.66 405.17V405.17Z" fill="#F4F4F4"/>
<path d="M115.89 427.27C112.74 428.07 112 426.08 111.59 424.44C110.59 420.44 110.05 416.86 109.3 414.6C108.42 411.94 107.5 411.51 106.2 410.99C104.69 410.38 103.38 411.67 103.88 415.06C104.504 418.997 105.471 422.872 106.77 426.64C107.23 428.336 108.118 429.886 109.35 431.14C110.98 432.46 113.43 432.4 117.13 431.48C119.3 430.741 121.407 429.828 123.43 428.75C124.23 428.38 124.85 428.13 126.43 427.41C127.995 426.726 129.369 425.668 130.43 424.33C131.23 423.16 131.34 422.61 131.18 422.33C131.02 422.05 130.6 422.07 130.18 422.56C129.559 423.388 128.794 424.096 127.92 424.65C127.92 424.65 128.92 423.65 129.45 422.96C129.936 422.35 130.336 421.678 130.64 420.96C130.93 420.28 130.34 419.36 129.89 419.84C129.44 420.32 129.24 420.84 128.42 421.84C127.992 422.361 127.501 422.828 126.96 423.23C127.467 422.548 127.919 421.825 128.31 421.07C128.661 420.464 128.831 419.77 128.8 419.07C128.8 418.72 128.27 418.3 127.8 418.97C127.313 419.925 126.708 420.815 126 421.62C125.28 422.37 124.67 422.8 124.65 422.62C124.63 422.44 125.09 422 125.34 421.14C125.59 420.28 125.34 419.35 124.86 419.25C124.38 419.15 124.47 419.17 124.09 419.99C123.556 420.824 123.078 421.693 122.66 422.59C122.413 423.427 121.967 424.193 121.36 424.82C120.6 425.61 118.89 426.52 115.89 427.27Z" fill="#FFCEA9"/>
<path d="M105 410.45C107.1 410.14 108.59 411.09 109.52 414.27C110.45 417.45 111.09 420.07 111.09 420.07C110.26 421.272 109 422.11 107.57 422.41C105.06 423.02 104.15 421.82 104.15 421.82C104.15 421.82 103.45 418.48 103.02 416.21C102.59 413.94 102.44 410.83 105 410.45Z" fill="#EDEDED"/>
<path d="M106.08 394.14C106.08 394.14 109.4 389.09 102.2 388.06C97.01 387.32 93.67 390.65 93.29 394.27C92.92 397.73 95.05 401.32 96.58 402.75C98.0917 403.135 99.6926 402.942 101.07 402.21C101.156 401.266 101.189 400.318 101.17 399.37C101.17 399.37 98.64 394.05 106.08 394.14Z" fill="#3A2C6D"/>
<path d="M120.49 458.05V442.88L108.44 449.91L113.08 459.5L120.49 458.05Z" fill="#C4C7D6"/>
<path d="M112.59 443.75L117.21 441.07L120.48 442.96L115.69 445.68L112.59 443.75Z" fill="#D6D8E5"/>
<path opacity="0.4" d="M303.1 375L246.18 342.14C242.07 339.77 242.59 335.63 247.33 332.89L284.21 311.6L356 353.08L319.13 374.37C314.38 377.11 307.21 377.4 303.1 375Z" fill="#D6D8E5"/>
<path d="M307.26 372.59L250.33 339.72C246.23 337.35 246.75 333.22 251.48 330.48L288.36 309.19L360.15 350.63L323.27 371.93C318.53 374.66 311.36 375 307.26 372.59Z" fill="#B1B4C4"/>
<path d="M360.15 350.63V348.46L356.84 350.37L360.15 350.63Z" fill="#B1B4C4"/>
<path d="M247.56 335.81V333.6L250.97 335.01L247.56 335.81Z" fill="#B1B4C4"/>
<path d="M307.26 370.42L250.33 337.55C246.23 335.18 246.75 331.04 251.48 328.31L288.36 307L360.15 348.45L323.27 369.74C318.53 372.49 311.36 372.78 307.26 370.42Z" fill="#D6D8E5"/>
<path d="M288.56 307.11L279.67 277.63L352.24 319.26L360.15 348.46L288.56 307.11Z" fill="#9EA1AF"/>
<path d="M358.05 349.67L360.15 348.46L357 346L358.05 349.67Z" fill="#9EA1AF"/>
<path d="M286.27 308.22L277.38 278.74L349.95 320.37L358.05 349.67L286.27 308.22Z" fill="#B1B4C4"/>
<path d="M470.49 399.35L189.58 237.17C185.64 234.89 182.45 228.79 182.45 223.54V6.25001C182.45 1.00001 185.64 -1.41999 189.58 0.860006L470.49 163C474.43 165.27 477.62 171.37 477.62 176.63V394C477.62 399.21 474.43 401.63 470.49 399.35Z" fill="#C4C7D6"/>
<path d="M471.93 401.59L475.05 399.8L473.7 390.57L471.93 401.59Z" fill="#C4C7D6"/>
<path d="M181.94 2.18999L185 0.429993L189.4 2.93999C189.4 2.93999 184.71 3.64999 184.6 3.61999C184.49 3.58999 181.94 2.18999 181.94 2.18999Z" fill="#B1B4C4"/>
<path d="M467.91 400.84L187 238.66C183.06 236.38 179.86 230.28 179.86 225.03V7.74C179.86 2.48 183.06 0.0699973 187 2.34L467.9 164.52C471.84 166.8 475.04 172.9 475.04 178.16V395.44C475.05 400.7 471.85 403.11 467.91 400.84Z" fill="#E4E7F2"/>
<path d="M467.42 401.12L186.51 238.94C182.57 236.66 179.38 230.56 179.38 225.31V8.00001C179.38 2.75001 182.57 0.330006 186.51 2.61001L467.42 164.81C471.36 167.08 474.55 173.18 474.55 178.44V395.73C474.55 401 471.36 403.4 467.42 401.12Z" fill="#201D38"/>
<path opacity="0.3" d="M470.69 387.91L182.94 221.78L183.09 8.88999C183.09 6.70999 184.62 5.82999 186.51 6.88999L467.42 169.1C468.416 169.748 469.244 170.622 469.839 171.651C470.433 172.679 470.776 173.834 470.84 175.02L470.69 387.91Z" fill="url(#paint1_linear_114_209)"/>
<path d="M357.62 142.08L338.55 131.07V124.19L357.62 135.2V142.08Z" fill="#A298E2"/>
<path d="M401.7 167.55L361.19 144.14V137.26L401.7 160.67V167.55Z" fill="#F4CE2C"/>
<path d="M357.62 164.09L338.55 153.09V146.21L357.62 157.21V164.09Z" fill="#A298E2"/>
<path d="M374.61 174.07L361.19 166.16V159.28L374.61 167.19V174.07Z" fill="#4D3BFF"/>
<path d="M357.62 175.1L338.55 164.09V157.21L357.62 168.22V175.1Z" fill="#A298E2"/>
<path d="M383.83 190.23L361.19 177.16V170.28L383.83 183.35V190.23Z" fill="#4D3BFF"/>
<path d="M357.62 186.1L338.55 175.1V168.22L357.62 179.23V186.1Z" fill="#A298E2"/>
<path d="M420.9 222.56L361.19 188.17V181.29L420.9 215.69V222.56Z" fill="#FF8657"/>
<path d="M357.62 153.09L338.55 142.08V135.2L357.62 146.21V153.09Z" fill="#A298E2"/>
<path d="M435.57 198.14L361.19 155.15V148.27L435.57 191.26V198.14Z" fill="#A298E2"/>
<path d="M357.62 197.11L338.55 186.1V179.22L357.62 190.23V197.11Z" fill="#A298E2"/>
<path d="M425.53 237.01L361.19 199.18V192.3L425.53 230.13V237.01Z" fill="#C33AFC"/>
<path d="M357.62 219.13L338.55 208.12V201.24L357.62 212.25V219.13Z" fill="#A298E2"/>
<path d="M436.26 264.53L361.19 221.19V214.31L436.26 257.65V264.53Z" fill="#A298E2"/>
<path d="M357.62 230.13L338.55 219.13V212.25L357.62 223.25V230.13Z" fill="#A298E2"/>
<path d="M383.83 245.27L361.19 232.19V225.32L383.83 238.39V245.27Z" fill="#C33AFC"/>
<path d="M357.62 241.14L338.55 230.13V223.25L357.62 234.26V241.14Z" fill="#A298E2"/>
<path d="M407.45 270.03L361.19 243.2V236.32L407.45 263.15V270.03Z" fill="#4D3BFF"/>
<path d="M357.62 208.12L338.55 197.11V190.23L357.62 201.24V208.12Z" fill="#A298E2"/>
<path d="M369.53 215L361.19 210.18V203.3L369.53 208.12V215Z" fill="#4D3BFF"/>
<path d="M357.62 252.15L338.55 241.14V234.26L357.62 245.27V252.15Z" fill="#A298E2"/>
<path d="M391.05 271.41L361.19 254.21V247.33L391.05 264.53V271.41Z" fill="#C33AFC"/>
<path d="M357.62 274.16L338.55 263.15V256.27L357.62 267.28V274.16Z" fill="#A298E2"/>
<path d="M404.76 301.06L361.19 276.22V269.34L404.76 294.18V301.06Z" fill="#FF8657"/>
<path d="M357.62 285.17L338.55 274.16V267.28L357.62 278.29V285.17Z" fill="#A298E2"/>
<path d="M366.63 290.67L361.19 287.23V280.35L366.63 283.79V290.67Z" fill="#A298E2"/>
<path d="M357.62 296.17L338.55 285.17V278.29L357.62 289.29V296.17Z" fill="#A298E2"/>
<path d="M386.18 312.63L361.19 298.24V291.36L386.18 305.75V312.63Z" fill="#F4CE2C"/>
<path d="M357.62 263.15L338.55 252.15V245.26L357.62 256.27V263.15Z" fill="#A298E2"/>
<path d="M395.96 285.17L361.19 265.21V258.34L395.96 278.29V285.17Z" fill="#4D3BFF"/>
<path d="M234.28 73.29L215.21 62.28V55.4L234.28 66.41V73.29Z" fill="#A298E2"/>
<path d="M318.88 122.13L237.85 75.35V68.47L318.88 115.25V122.13Z" fill="#C33AFC"/>
<path d="M234.28 95.3L215.21 84.29V77.41L234.28 88.42V95.3Z" fill="#A298E2"/>
<path d="M291.47 128.32L237.85 97.36V90.48L291.47 121.44V128.32Z" fill="#F4CE2C"/>
<path d="M234.28 106.31L215.21 95.3V88.42L234.28 99.43V106.31Z" fill="#A298E2"/>
<path d="M304.58 146.89L237.85 108.37V101.49L304.58 140.01V146.89Z" fill="#FF8657"/>
<path d="M234.28 117.31L215.21 106.31V99.43L234.28 110.43V117.31Z" fill="#A298E2"/>
<path d="M284.32 146.21L237.85 119.38V112.5L284.32 139.33V146.21Z" fill="#A298E2"/>
<path d="M234.28 84.29L215.21 73.28V66.41L234.28 77.41V84.29Z" fill="#A298E2"/>
<path d="M278.36 109.75L237.85 86.36V79.48L278.36 102.87V109.75Z" fill="#4D3BFF"/>
<path d="M234.28 128.32L215.21 117.31V110.43L234.28 121.44V128.32Z" fill="#A298E2"/>
<path d="M261.68 144.14L237.85 130.38V123.5L261.68 137.26V144.14Z" fill="#C33AFC"/>
<path d="M234.28 150.33L215.21 139.32V132.45L234.28 143.45V150.33Z" fill="#A298E2"/>
<path d="M312.92 195.74L237.85 152.4V145.52L312.92 188.86V195.74Z" fill="#F4CE2C"/>
<path d="M234.28 161.34L215.21 150.33V143.45L234.28 154.46V161.34Z" fill="#A298E2"/>
<path d="M260.49 176.47L237.85 163.4V156.52L260.49 169.59V176.47Z" fill="#FF8657"/>
<path d="M234.28 172.35L215.21 161.34V154.46L234.28 165.47V172.35Z" fill="#A298E2"/>
<path d="M304.58 212.93L237.85 174.41V167.53L304.58 206.06V212.93Z" fill="#A298E2"/>
<path d="M234.28 139.33L215.21 128.32V121.44L234.28 132.45V139.33Z" fill="#A298E2"/>
<path d="M301 177.85L237.85 141.39V134.51L301 170.97V177.85Z" fill="#4D3BFF"/>
<path d="M234.28 183.35L215.21 172.34V165.47L234.28 176.47V183.35Z" fill="#A298E2"/>
<path d="M246.19 190.23L237.85 185.42V178.54L246.19 183.35V190.23Z" fill="#C33AFC"/>
<path d="M234.28 205.37L215.21 194.36V187.48L234.28 198.49V205.37Z" fill="#A298E2"/>
<path d="M253.34 216.37L237.85 207.43V200.55L253.34 209.49V216.37Z" fill="#F4CE2C"/>
<path d="M234.28 216.37L215.21 205.37V198.49L234.28 209.49V216.37Z" fill="#A298E2"/>
<path d="M278.36 241.83L237.85 218.44V211.56L278.36 234.95V241.83Z" fill="#FF8657"/>
<path d="M234.28 227.38L215.21 216.37V209.49L234.28 220.5V227.38Z" fill="#A298E2"/>
<path d="M302.19 266.59L237.85 229.44V222.56L302.19 259.71V266.59Z" fill="#A298E2"/>
<path d="M234.28 194.36L215.21 183.35V176.47L234.28 187.48V194.36Z" fill="#A298E2"/>
<path d="M318.88 243.2L237.85 196.42V189.54L318.88 236.32V243.2Z" fill="#4D3BFF"/>
<path opacity="0.4" d="M380.75 500C403.858 500 422.59 489.183 422.59 475.84C422.59 462.497 403.858 451.68 380.75 451.68C357.642 451.68 338.91 462.497 338.91 475.84C338.91 489.183 357.642 500 380.75 500Z" fill="#D6D8E5"/>
<path d="M426.7 472.41V408L343.19 410.1L343.37 469.5C341.81 476.65 345.77 484.12 355.28 489.61C371.62 499.04 398.11 499.05 414.45 489.61C422.66 484.84 426.74 478.62 426.7 472.41Z" fill="#A6CE28"/>
<path d="M384.86 432.13C407.968 432.13 426.7 421.313 426.7 407.97C426.7 394.627 407.968 383.81 384.86 383.81C361.752 383.81 343.02 394.627 343.02 407.97C343.02 421.313 361.752 432.13 384.86 432.13Z" fill="#BCD64D"/>
<path d="M420.09 408C420.09 411.93 416.82 416.06 411.14 419.35C404.94 422.91 396.47 425.11 387.55 425.47C386.66 425.47 385.77 425.53 384.87 425.53C374.97 425.53 365.4 423.27 358.59 419.35C352.91 416.06 349.64 411.93 349.64 408C349.64 404.07 352.91 399.94 358.59 396.65C365.4 392.72 374.97 390.46 384.86 390.46C385.76 390.46 386.66 390.46 387.55 390.52C396.47 390.88 404.94 393.08 411.14 396.65C416.82 399.91 420.09 404 420.09 408Z" fill="#28221C"/>
<path opacity="0.07" d="M420.09 408C420.09 411.93 416.82 416.06 411.14 419.35C404.94 422.91 396.47 425.11 387.55 425.47C378.63 425.11 370.15 422.91 363.96 419.35C358.27 416 355 411.9 355 408C355 404.1 358.26 399.94 363.94 396.65C370.14 393.08 378.62 390.88 387.54 390.52C396.46 390.88 404.93 393.08 411.13 396.65C416.82 399.91 420.09 404 420.09 408Z" fill="white"/>
<path d="M420.58 437.81L411.7 432.67L407.38 435.17L411.7 437.67V439.31L420.03 444.11L419.78 445.65C420.99 446.65 425.3 454.65 425.3 454.65L425.6 454.37V475.1C425.6 480.54 422.41 478.7 421.05 477.91L411.7 472.51L407.38 475L411.7 477.49V479.13L421.05 484.53C421.995 485.097 423.001 485.553 424.05 485.89L423.49 488.49L428.33 485.76H428.4H428.47C430.47 484.58 431.32 481.71 431.32 478.49V456.74C431.36 447.55 424.31 440.34 420.58 437.81Z" fill="#8DA01F"/>
<path d="M416.73 487.06L407.38 481.66V475L416.73 480.4C418.09 481.18 421.28 483.03 421.28 477.58V455.93C421.28 450.81 416.65 447.27 415.86 446.71L407.38 441.81V435.17L416.26 440.31C420 442.84 427 450.06 427 459.25V480.92C427 486.77 424.33 491.44 416.73 487.06Z" fill="#99B524"/>
<path opacity="0.4" d="M122.37 372.01C138.281 372.01 151.18 364.56 151.18 355.37C151.18 346.18 138.281 338.73 122.37 338.73C106.459 338.73 93.56 346.18 93.56 355.37C93.56 364.56 106.459 372.01 122.37 372.01Z" fill="#D6D8E5"/>
<path d="M126.48 368.93C142.391 368.93 155.29 361.48 155.29 352.29C155.29 343.1 142.391 335.65 126.48 335.65C110.569 335.65 97.67 343.1 97.67 352.29C97.67 361.48 110.569 368.93 126.48 368.93Z" fill="#D6D8E5"/>
<path d="M87.91 295.41L97.99 353.44H155.22L165.05 295.83L87.91 295.41Z" fill="#D6D8E5"/>
<path d="M126.48 316.98C147.804 316.98 165.09 307 165.09 294.69C165.09 282.38 147.804 272.4 126.48 272.4C105.156 272.4 87.87 282.38 87.87 294.69C87.87 307 105.156 316.98 126.48 316.98Z" fill="#E4E6EF"/>
<path d="M126.48 312.06C117.02 312.06 108.2 309.98 101.64 306.19C96.01 302.95 92.79 298.75 92.79 294.69C92.79 290.63 96.01 286.43 101.64 283.19C108.19 279.4 117.02 277.32 126.48 277.32C135.94 277.32 144.77 279.4 151.32 283.19C156.95 286.43 160.17 290.63 160.17 294.69C160.17 298.75 157 303 151.32 306.19C144.77 310 136 312.06 126.48 312.06Z" fill="#28221C"/>
<path d="M143.09 277.13C143.636 269.631 142.442 262.107 139.601 255.146C136.76 248.185 132.348 241.975 126.71 237V237L126.6 236.89V237.1C120.957 242.075 116.541 248.288 113.698 255.253C110.855 262.219 109.661 269.747 110.21 277.25L88.12 275.12C97.44 310.23 126.71 307.21 126.71 307.21V307.14C128.92 307.31 156.22 308.72 165.15 275.04L143.09 277.13Z" fill="#99B524"/>
<path d="M126.71 307.21C126.71 307.21 124.71 279.87 88.03 261.46C88 261.46 79.34 306.88 126.71 307.21Z" fill="#A6CE28"/>
<path d="M126.48 307.21C126.48 307.21 128.48 279.87 165.16 261.46C165.16 261.46 173.85 306.88 126.48 307.21Z" fill="#A6CE28"/>
</g>
<defs>
<linearGradient id="paint0_linear_114_209" x1="73.7487" y1="-3.78262" x2="403.633" y2="552.168" gradientUnits="userSpaceOnUse">
<stop stop-color="#3A2C6D"/>
<stop offset="1" stop-color="#4BB164"/>
</linearGradient>
<linearGradient id="paint1_linear_114_209" x1="182.94" y1="197.18" x2="470.84" y2="197.18" gradientUnits="userSpaceOnUse">
<stop offset="0.21" stop-color="white" stop-opacity="0"/>
<stop offset="1" stop-color="white" stop-opacity="0.2"/>
</linearGradient>
<clipPath id="clip0_114_209">
<rect width="396.62" height="500" fill="white" transform="translate(81)"/>
</clipPath>
</defs>
</svg>
