<svg width="80" height="80" viewBox="0 0 80 80" fill="none" xmlns="http://www.w3.org/2000/svg">
<path d="M0 5V75H80V5H0ZM43.5357 59.5938C43.5357 66.4062 38.9643 69.5156 32.3036 69.5156C26.2857 69.5156 22.8036 66.7969 21.0179 63.5L27.1429 60.2656C28.3214 62.0938 29.3929 63.6406 31.9821 63.6406C34.4464 63.6406 36.0179 62.7969 36.0179 59.5V37.1406H43.5357V59.5938ZM61.3214 69.5156C54.3393 69.5156 49.8214 66.6094 47.625 62.7969L53.75 59.7031C55.3571 62 57.4643 63.7031 61.1607 63.7031C64.2679 63.7031 66.2679 62.3438 66.2679 60.4531C66.2679 58.2031 64.2321 57.4062 60.7857 56.0781L58.9107 55.375C53.4821 53.3594 49.8929 50.8125 49.8929 45.4531C49.8929 40.5156 54.1964 36.7656 60.8929 36.7656C65.6786 36.7656 69.1071 38.2188 71.5714 42.0312L65.7143 45.3125C64.4286 43.2969 63.0357 42.5 60.875 42.5C58.6786 42.5 57.2857 43.7188 57.2857 45.3125C57.2857 47.2812 58.6786 48.0781 61.9107 49.3125L63.7857 50.0156C70.1786 52.4062 73.7679 54.8594 73.7679 60.3594C73.7679 66.2656 68.4464 69.5156 61.3214 69.5156Z" fill="url(#paint0_linear_18_196)"/>
<defs>
<linearGradient id="paint0_linear_18_196" x1="0" y1="5" x2="69.3805" y2="84.292" gradientUnits="userSpaceOnUse">
<stop stop-color="#061923"/>
<stop offset="1" stop-color="#4BB164"/>
</linearGradient>
</defs>
</svg>
