<svg width="100" height="94" viewBox="0 0 100 94" fill="none" xmlns="http://www.w3.org/2000/svg">
<path d="M49.325 0.0188846C36.1375 0.206385 18.4187 5.03139 18.7188 20.5189C19.0312 36.6876 36.95 30.9064 38.4062 37.5126C38.625 37.2314 38.9562 37.0001 39.1875 36.7314C40.4187 35.3939 41.6562 34.3064 42.8937 33.0189C44.8437 30.8189 46.8688 28.7751 48.9375 26.5751C55.85 19.2126 56.15 18.7626 72.6625 6.26263C66.1938 2.38763 58.55 0.231385 52.0563 0.0126346C51.2188 -0.0123654 50.2063 0.00638459 49.325 0.0126346V0.0188846ZM37.4312 9.58138C42.6 9.58138 46.7875 13.7814 46.7875 18.9564C46.7863 20.8096 46.2354 22.6208 45.2047 24.161C44.1739 25.7011 42.7095 26.9009 40.9968 27.6087C39.284 28.3165 37.3999 28.5004 35.5826 28.1372C33.7653 27.774 32.0965 26.8799 30.7874 25.5682C29.4783 24.2565 28.5876 22.5859 28.228 20.7679C27.8685 18.9499 28.0561 17.0661 28.7673 15.3548C29.4785 13.6434 30.6813 12.1815 32.2235 11.1538C33.7657 10.1261 35.578 9.57891 37.4312 9.58138ZM82.8625 13.7189C74 27.6876 68.0625 35.9439 61.8 42.3939C57.8062 46.5001 54.5312 50.5876 51.6625 53.5189C46.4187 59.0876 39.55 65.6564 31.975 72.8564C32.3688 82.0376 37.0375 90.0189 52.25 92.9689C76.6125 97.6939 102.419 81.5689 99.8187 48.8376C98.7062 34.7876 91.0375 22.0814 82.8625 13.7189ZM85 37.5126C86.6576 37.5126 88.2473 38.1711 89.4194 39.3432C90.5915 40.5153 91.25 42.105 91.25 43.7626C91.25 45.4202 90.5915 47.01 89.4194 48.1821C88.2473 49.3542 86.6576 50.0126 85 50.0126C83.3424 50.0126 81.7527 49.3542 80.5806 48.1821C79.4085 47.01 78.75 45.4202 78.75 43.7626C78.75 42.105 79.4085 40.5153 80.5806 39.3432C81.7527 38.1711 83.3424 37.5126 85 37.5126ZM81.1 56.2626C82.7226 56.314 84.2615 56.9946 85.3911 58.1605C86.5207 59.3264 87.1524 60.8861 87.1524 62.5095C87.1524 64.1329 86.5207 65.6926 85.3911 66.8585C84.2615 68.0244 82.7226 68.7051 81.1 68.7564C79.4424 68.7564 77.8527 68.0979 76.6806 66.9258C75.5085 65.7537 74.85 64.164 74.85 62.5064C74.85 60.8488 75.5085 59.2591 76.6806 58.087C77.8527 56.9149 79.4424 56.2564 81.1 56.2564V56.2626ZM49.9125 68.7501C51.5701 68.7501 53.1598 69.4086 54.3319 70.5807C55.504 71.7528 56.1625 73.3425 56.1625 75.0001C56.1625 76.6577 55.504 78.2475 54.3319 79.4196C53.1598 80.5917 51.5701 81.2501 49.9125 81.2501C48.2549 81.2501 46.6652 80.5917 45.4931 79.4196C44.321 78.2475 43.6625 76.6577 43.6625 75.0001C43.6625 73.3425 44.321 71.7528 45.4931 70.5807C46.6652 69.4086 48.2549 68.7501 49.9125 68.7501ZM68.625 68.7501C70.2826 68.7501 71.8723 69.4086 73.0444 70.5807C74.2165 71.7528 74.875 73.3425 74.875 75.0001C74.875 76.6577 74.2165 78.2475 73.0444 79.4196C71.8723 80.5917 70.2826 81.2501 68.625 81.2501C66.9674 81.2501 65.3777 80.5917 64.2056 79.4196C63.0335 78.2475 62.375 76.6577 62.375 75.0001C62.375 73.3425 63.0335 71.7528 64.2056 70.5807C65.3777 69.4086 66.9674 68.7501 68.625 68.7501ZM0 84.3751C9.7 84.3751 8.7125 73.2001 13.4188 70.0876C18.8813 66.4814 23.6625 70.9501 24.6187 74.6251C25.8187 79.2626 23.8875 84.8189 17.5562 86.4064C10.8437 88.0814 0.91875 88.1314 0 84.3689V84.3751Z" fill="url(#paint0_linear_112_4)"/>
<path d="M87.7312 0.0187988C76.4812 8.13755 61.4437 20.6563 49.5125 33.3501C48.4312 34.5063 47.3875 35.6188 46.3625 36.7688C45.7125 37.4438 45.0375 37.9938 44.3937 38.6938C43.9812 39.1751 43.6062 39.7126 43.2062 40.1938C31.5 53.1313 19.9562 69.4438 12.475 81.6438C31.0875 67.2875 43.2 55.6126 50.8937 47.4563C52.3937 45.9188 54.2062 43.9126 56.2062 41.6876C63.7312 33.3438 74.4937 20.2001 87.7312 0.0187988Z" fill="url(#paint1_linear_112_4)"/>
<defs>
<linearGradient id="paint0_linear_112_4" x1="50.0001" y1="0" x2="50.0001" y2="93.7783" gradientUnits="userSpaceOnUse">
<stop stop-color="#061923"/>
<stop offset="1" stop-color="white"/>
</linearGradient>
<linearGradient id="paint1_linear_112_4" x1="80.5" y1="-9" x2="17.5" y2="82" gradientUnits="userSpaceOnUse">
<stop stop-color="#061923"/>
<stop offset="1" stop-color="#4BB164"/>
</linearGradient>
</defs>
</svg>
