<svg width="92" height="100" viewBox="0 0 92 100" fill="none" xmlns="http://www.w3.org/2000/svg">
<g clip-path="url(#clip0_18_177)">
<path d="M62.9459 6.25C64.4691 6.25 65.93 6.90848 67.007 8.08058C68.0841 9.25268 68.6892 10.8424 68.6892 12.5V87.5C68.6892 89.1576 68.0841 90.7473 67.007 91.9194C65.93 93.0915 64.4691 93.75 62.9459 93.75H28.4865C26.9633 93.75 25.5025 93.0915 24.4254 91.9194C23.3483 90.7473 22.7432 89.1576 22.7432 87.5V12.5C22.7432 10.8424 23.3483 9.25268 24.4254 8.08058C25.5025 6.90848 26.9633 6.25 28.4865 6.25H62.9459ZM28.4865 0C25.4401 0 22.5184 1.31696 20.3643 3.66117C18.2102 6.00537 17 9.18479 17 12.5V87.5C17 90.8152 18.2102 93.9946 20.3643 96.3388C22.5184 98.683 25.4401 100 28.4865 100H62.9459C65.9924 100 68.914 98.683 71.0681 96.3388C73.2223 93.9946 74.4324 90.8152 74.4324 87.5V12.5C74.4324 9.18479 73.2223 6.00537 71.0681 3.66117C68.914 1.31696 65.9924 0 62.9459 0L28.4865 0Z" fill="url(#paint0_linear_18_177)"/>
<path d="M46.0001 87.5C47.5233 87.5 48.9841 86.8415 50.0612 85.6694C51.1382 84.4973 51.7433 82.9076 51.7433 81.25C51.7433 79.5924 51.1382 78.0027 50.0612 76.8306C48.9841 75.6585 47.5233 75 46.0001 75C44.4769 75 43.0161 75.6585 41.939 76.8306C40.8619 78.0027 40.2568 79.5924 40.2568 81.25C40.2568 82.9076 40.8619 84.4973 41.939 85.6694C43.0161 86.8415 44.4769 87.5 46.0001 87.5Z" fill="url(#paint1_linear_18_177)"/>
</g>
<defs>
<linearGradient id="paint0_linear_18_177" x1="45.7162" y1="0" x2="45.7162" y2="100" gradientUnits="userSpaceOnUse">
<stop stop-color="#061923"/>
<stop offset="1" stop-color="white"/>
</linearGradient>
<linearGradient id="paint1_linear_18_177" x1="46.0001" y1="75" x2="46.0001" y2="87.5" gradientUnits="userSpaceOnUse">
<stop stop-color="#061923"/>
<stop offset="1" stop-color="#4BB164"/>
</linearGradient>
<clipPath id="clip0_18_177">
<rect width="91.8919" height="100" fill="white" transform="translate(0.0540771)"/>
</clipPath>
</defs>
</svg>
